<svg width="16" height="16" viewBox="0 0 16 16" fill="none" xmlns="http://www.w3.org/2000/svg">
<g id="solar:user-bold">
<path id="Vector" d="M7.75 2.60001L7.75039 2.60001C8.89531 2.59927 10.0398 2.64632 11.1808 2.74104C12.1647 2.82363 12.9 3.6611 12.9 4.64756V8.2986C12.9 9.28651 12.1628 10.1248 11.1776 10.205C11.1775 10.205 11.1773 10.205 11.1771 10.205L10.8973 10.227L10.3444 10.2706V10.8252L10.3444 12.8606C10.3444 12.8607 10.3444 12.8608 10.3444 12.8608C10.3444 12.8684 10.3421 12.8759 10.3379 12.8822C10.3336 12.8886 10.3275 12.8935 10.3204 12.8965C10.3133 12.8994 10.3055 12.9002 10.298 12.8987C10.2904 12.8972 10.2835 12.8935 10.2781 12.8881L7.90841 10.5193L7.73425 10.3452L7.48801 10.3436C6.42215 10.3369 5.36732 10.2907 4.3235 10.2051L4.32331 10.205C3.33726 10.1245 2.6 9.28636 2.6 8.2986V4.64842C2.6 3.66066 3.33484 2.82371 4.31903 2.74191L4.31933 2.74189C5.45013 2.64733 6.59367 2.60001 7.75 2.60001Z" stroke="#ADADAD" stroke-width="1.2"/>
</g>
</svg>
