<svg width="32" height="32" viewBox="0 0 32 32" fill="none" xmlns="http://www.w3.org/2000/svg">
<g id="ico">
<g id="Vector">
<path fill-rule="evenodd" clip-rule="evenodd" d="M11.1209 9.16691C10.2996 10.7182 10.0909 12.7954 10.0909 14.8182C10.0909 17.0309 9.42665 18.8015 8.76376 20.0168C8.66037 20.2063 8.55685 20.3827 8.45566 20.5455H23.1807C23.0796 20.3827 22.976 20.2063 22.8727 20.0168C22.2098 18.8015 21.5455 17.0309 21.5455 14.8182C21.5455 12.7954 21.3368 10.7182 20.5156 9.16691C20.1136 8.40771 19.5716 7.78772 18.8392 7.35253C18.1056 6.91665 17.131 6.63636 15.8182 6.63636C14.5055 6.63636 13.5308 6.91665 12.7972 7.35253C12.0648 7.78772 11.5228 8.40771 11.1209 9.16691ZM25.3972 20.7855L25.3846 20.7724C25.3719 20.7589 25.3509 20.7364 25.3228 20.705C25.2666 20.6421 25.1823 20.5439 25.079 20.4119C24.8722 20.1477 24.5913 19.7504 24.3092 19.2332C23.7448 18.1985 23.1818 16.6963 23.1818 14.8182C23.1818 12.75 22.9814 10.3273 21.9618 8.40127C21.4432 7.42183 20.7069 6.55887 19.6751 5.94577C18.6444 5.33335 17.3691 5 15.8182 5C14.2673 5 12.992 5.33335 11.9613 5.94577C10.9295 6.55887 10.1932 7.42183 9.67465 8.40127C8.65499 10.3273 8.45457 12.75 8.45457 14.8182C8.45457 16.6963 7.89158 18.1985 7.3272 19.2332C7.04508 19.7504 6.76424 20.1477 6.55741 20.4119C6.45413 20.5439 6.36977 20.6421 6.31359 20.705C6.28552 20.7364 6.26454 20.7589 6.25181 20.7724L6.23922 20.7855C6.23922 20.7855 6.23966 20.7851 6.81821 21.3636L6.23922 20.7855M25.3972 20.7855L25.3984 20.7868C25.6311 21.0208 25.7004 21.3717 25.5741 21.6767C25.4475 21.9825 25.1491 22.1818 24.8182 22.1818H6.81821C6.48728 22.1818 6.18894 21.9825 6.0623 21.6767C5.93598 21.3718 6.00531 21.0209 6.23791 20.7869" fill="#FAFAFA"/>
<path fill-rule="evenodd" clip-rule="evenodd" d="M13.9949 24.8084C14.4325 25.1365 15.0744 25.3636 15.8182 25.3636C16.562 25.3636 17.204 25.1365 17.6415 24.8084C18.0787 24.4804 18.2728 24.0898 18.2728 23.7273H19.9091C19.9091 24.7203 19.3705 25.557 18.6233 26.1174C17.8763 26.6777 16.8819 27 15.8182 27C14.7546 27 13.7601 26.6777 13.0131 26.1174C12.2659 25.557 11.7273 24.7203 11.7273 23.7273H13.3637C13.3637 24.0898 13.5577 24.4804 13.9949 24.8084Z" fill="#FAFAFA"/>
</g>
</g>
</svg>
