<svg width="8" height="8" viewBox="0 0 8 8" fill="none" xmlns="http://www.w3.org/2000/svg">
<g id="ico/arrow" clip-path="url(#clip0_2001_309)">
<path id="Vector" d="M5.46168 4L2.91555 1.38341C2.89458 1.36232 2.87801 1.33729 2.86679 1.30975C2.85556 1.28222 2.84991 1.25273 2.85016 1.223C2.85041 1.19327 2.85655 1.16388 2.86823 1.13654C2.87991 1.1092 2.89689 1.08444 2.9182 1.0637C2.93951 1.04297 2.96472 1.02667 2.99238 1.01574C3.02003 1.00481 3.04957 0.999475 3.0793 1.00004C3.10903 1.00061 3.13835 1.00706 3.16557 1.01904C3.19278 1.03101 3.21736 1.04826 3.23786 1.06979L5.93631 3.84319C5.97715 3.88517 6 3.94143 6 4C6 4.05857 5.97715 4.11483 5.93631 4.15681L3.23786 6.93021C3.21736 6.95174 3.19278 6.96899 3.16557 6.98097C3.13835 6.99294 3.10903 6.99939 3.0793 6.99996C3.04957 7.00053 3.02003 6.99519 2.99238 6.98426C2.96472 6.97334 2.93951 6.95703 2.9182 6.9363C2.89689 6.91556 2.87991 6.89081 2.86823 6.86346C2.85655 6.83612 2.85041 6.80673 2.85016 6.777C2.84991 6.74727 2.85556 6.71778 2.86679 6.69025C2.87801 6.66271 2.89458 6.63768 2.91555 6.61659L5.46168 4Z" fill="#FF803A" stroke="#FF803A" stroke-width="0.3"/>
</g>
<defs>
<clipPath id="clip0_2001_309">
<rect width="8" height="8" fill="white" transform="matrix(1.19249e-08 -1 -1 -1.19249e-08 8 8)"/>
</clipPath>
</defs>
</svg>
