<svg width="54" height="54" viewBox="0 0 54 54" fill="none" xmlns="http://www.w3.org/2000/svg">
<rect x="0.5" y="0.5" width="53" height="53" rx="26.5" fill="white"/>
<rect x="0.5" y="0.5" width="53" height="53" rx="26.5" stroke="#EAEAEA"/>
<path d="M26.4708 20.47C26.6118 20.3303 26.8023 20.2519 27.0008 20.2519C27.1993 20.2519 27.3898 20.3303 27.5308 20.47L32.5308 25.47C32.6045 25.5387 32.6636 25.6215 32.7046 25.7135C32.7456 25.8055 32.7676 25.9048 32.7694 26.0055C32.7712 26.1062 32.7527 26.2062 32.7149 26.2996C32.6772 26.393 32.6211 26.4778 32.5499 26.549C32.4786 26.6203 32.3938 26.6764 32.3004 26.7141C32.207 26.7518 32.107 26.7704 32.0063 26.7686C31.9056 26.7668 31.8063 26.7448 31.7143 26.7038C31.6223 26.6628 31.5395 26.6037 31.4708 26.53L27.7508 22.81V33C27.7508 33.1989 27.6718 33.3897 27.5312 33.5303C27.3905 33.671 27.1997 33.75 27.0008 33.75C26.8019 33.75 26.6111 33.671 26.4705 33.5303C26.3298 33.3897 26.2508 33.1989 26.2508 33V22.81L22.5308 26.53C22.3886 26.6625 22.2006 26.7346 22.0063 26.7312C21.812 26.7277 21.6266 26.649 21.4892 26.5116C21.3518 26.3742 21.2731 26.1888 21.2696 25.9945C21.2662 25.8002 21.3383 25.6122 21.4708 25.47L26.4708 20.47Z" fill="#191919"/>
</svg>
