<svg width="16" height="16" viewBox="0 0 16 16" fill="none" xmlns="http://www.w3.org/2000/svg">
<g id="ico/arrow">
<path id="Vector" d="M9.92336 8L4.83109 2.76682C4.78917 2.72465 4.75602 2.67458 4.73358 2.61951C4.71113 2.56444 4.69982 2.50547 4.70032 2.446C4.70081 2.38654 4.71309 2.32776 4.73645 2.27308C4.75981 2.21839 4.79379 2.16888 4.83641 2.12741C4.87903 2.08594 4.92945 2.05333 4.98475 2.03148C5.04006 2.00962 5.09915 1.99895 5.1586 2.00008C5.21806 2.00121 5.2767 2.01413 5.33113 2.03807C5.38557 2.06201 5.43471 2.09652 5.47572 2.13958L10.8726 7.68638C10.9543 7.77034 11 7.88286 11 8C11 8.11714 10.9543 8.22966 10.8726 8.31362L5.47572 13.8604C5.43471 13.9035 5.38557 13.938 5.33113 13.9619C5.2767 13.9859 5.21806 13.9988 5.1586 13.9999C5.09915 14.0011 5.04006 13.9904 4.98475 13.9685C4.92945 13.9467 4.87903 13.9141 4.83641 13.8726C4.79379 13.8311 4.75981 13.7816 4.73645 13.7269C4.71309 13.6722 4.70081 13.6135 4.70032 13.554C4.69982 13.4945 4.71113 13.4356 4.73358 13.3805C4.75602 13.3254 4.78917 13.2754 4.83109 13.2332L9.92336 8Z" fill="#545454" stroke="#545454" stroke-width="0.5"/>
</g>
</svg>
