<svg width="20" height="20" viewBox="0 0 20 20" fill="none" xmlns="http://www.w3.org/2000/svg">
<g id="uis:comment-dots">
<path id="Vector" d="M10 2.5C5.875 2.5 2.5 5.875 2.5 10C2.5 11.725 3.1 13.375 4.225 14.725L2.725 16.225C2.425 16.525 2.425 16.975 2.725 17.275C2.875 17.425 3.025 17.5 3.25 17.5H10C14.125 17.5 17.5 14.125 17.5 10C17.5 5.875 14.125 2.5 10 2.5ZM7 10.75C6.55 10.75 6.25 10.45 6.25 10C6.25 9.55 6.55 9.25 7 9.25C7.45 9.25 7.75 9.55 7.75 10C7.75 10.45 7.45 10.75 7 10.75ZM10 10.75C9.55 10.75 9.25 10.45 9.25 10C9.25 9.55 9.55 9.25 10 9.25C10.45 9.25 10.75 9.55 10.75 10C10.75 10.45 10.45 10.75 10 10.75ZM13 10.75C12.55 10.75 12.25 10.45 12.25 10C12.25 9.55 12.55 9.25 13 9.25C13.45 9.25 13.75 9.55 13.75 10C13.75 10.45 13.45 10.75 13 10.75Z" fill="#C7CCCE"/>
</g>
</svg>
