<svg width="16" height="16" viewBox="0 0 16 16" fill="none" xmlns="http://www.w3.org/2000/svg">
<g id="solar:history-linear">
<g id="Group">
<path id="Vector" d="M8 5.33301V7.99967L9.66667 9.66634" stroke="#7D7D7D" stroke-width="1.5" stroke-linecap="round" stroke-linejoin="round"/>
<g id="Vector_2">
<path d="M2.89199 4.58076L2.39199 4.58276C2.39252 4.71456 2.44506 4.84082 2.5382 4.93408C2.63133 5.02734 2.75752 5.08005 2.88932 5.08076L2.89199 4.58076ZM4.58666 5.08876C4.65232 5.08906 4.7174 5.07643 4.77818 5.05159C4.83896 5.02674 4.89425 4.99017 4.94089 4.94396C4.98754 4.89775 5.02463 4.8428 5.05004 4.78225C5.07545 4.72171 5.08868 4.65675 5.08899 4.59109C5.0893 4.52543 5.07667 4.46035 5.05182 4.39957C5.02698 4.33879 4.99041 4.2835 4.94419 4.23685C4.89798 4.19021 4.84303 4.15312 4.78249 4.12771C4.72194 4.1023 4.65698 4.08906 4.59132 4.08876L4.58666 5.08876ZM3.38332 2.88076C3.38297 2.81509 3.36969 2.75015 3.34424 2.68962C3.31879 2.62909 3.28167 2.57416 3.23499 2.52798C3.18831 2.4818 3.133 2.44527 3.0722 2.42046C3.0114 2.39566 2.94632 2.38307 2.88066 2.38342C2.815 2.38377 2.75005 2.39705 2.68952 2.4225C2.62899 2.44795 2.57407 2.48508 2.52788 2.53175C2.4817 2.57843 2.44517 2.63375 2.42036 2.69454C2.39556 2.75534 2.38297 2.82043 2.38332 2.88609L3.38332 2.88076ZM2.55132 7.19009C2.5609 7.12474 2.55744 7.05814 2.54114 6.99414C2.52484 6.93014 2.49602 6.87 2.45634 6.8172C2.41667 6.7644 2.36692 6.71998 2.30999 6.68651C2.25305 6.65305 2.19005 6.63119 2.12461 6.62221C2.05918 6.61322 1.99262 6.61729 1.92877 6.63418C1.86492 6.65107 1.80505 6.68044 1.75261 6.72059C1.70018 6.76075 1.65621 6.8109 1.62327 6.86814C1.59032 6.92538 1.56904 6.98858 1.56066 7.05409L2.55132 7.19009ZM12.5747 3.42542C10.028 0.878756 5.91266 0.852089 3.38266 3.38276L4.08932 4.08942C6.22266 1.95676 9.70466 1.96942 11.868 4.13209L12.5747 3.42542ZM3.42532 12.5748C5.97199 15.1214 10.0873 15.1481 12.6173 12.6174L11.9107 11.9108C9.77732 14.0434 6.29532 14.0308 4.13199 11.8681L3.42532 12.5748ZM12.6173 12.6174C15.1473 10.0874 15.1213 5.97209 12.5747 3.42542L11.868 4.13209C14.0307 6.29542 14.0433 9.77742 11.9107 11.9108L12.6173 12.6174ZM3.38266 3.38276L2.53799 4.22676L3.24532 4.93342L4.08932 4.08942L3.38266 3.38276ZM2.88932 5.08076L4.58666 5.08876L4.59132 4.08876L2.89466 4.08076L2.88932 5.08076ZM3.39199 4.57809L3.38332 2.88076L2.38332 2.88609L2.39199 4.58276L3.39199 4.57809ZM1.55999 7.05342C1.42291 8.05515 1.51996 9.07501 1.8435 10.0329C2.16703 10.9908 2.70826 11.8606 3.42466 12.5741L4.13132 11.8674C3.52405 11.263 3.06525 10.526 2.79098 9.71427C2.51671 8.90256 2.43445 8.0383 2.55066 7.18942L1.55999 7.05342Z" fill="#7D7D7D"/>
<path d="M3.73599 3.73609L3.38266 3.38276M3.38266 3.38276C5.91266 0.852089 10.028 0.878756 12.5747 3.42542M3.38266 3.38276L4.08932 4.08942M3.38266 3.38276L2.53799 4.22676L3.24532 4.93342L4.08932 4.08942M2.39199 4.58276L2.89199 4.58076L2.88932 5.08076M2.39199 4.58276C2.39252 4.71456 2.44506 4.84082 2.5382 4.93408C2.63133 5.02734 2.75752 5.08005 2.88932 5.08076M2.39199 4.58276L2.38332 2.88609M2.39199 4.58276L3.39199 4.57809L3.38332 2.88076M2.88932 5.08076L4.58666 5.08876M2.88932 5.08076L2.89466 4.08076L4.59132 4.08876M4.58666 5.08876C4.65232 5.08906 4.7174 5.07643 4.77818 5.05159C4.83896 5.02674 4.89425 4.99017 4.94089 4.94396C4.98754 4.89775 5.02463 4.8428 5.05004 4.78225C5.07545 4.72171 5.08868 4.65675 5.08899 4.59109C5.0893 4.52543 5.07667 4.46035 5.05182 4.39957C5.02698 4.33879 4.99041 4.2835 4.94419 4.23685C4.89798 4.19021 4.84303 4.15312 4.78249 4.12771C4.72194 4.1023 4.65698 4.08906 4.59132 4.08876M4.58666 5.08876L4.59132 4.08876M3.38332 2.88076C3.38297 2.81509 3.36969 2.75015 3.34424 2.68962C3.31879 2.62909 3.28167 2.57416 3.23499 2.52798C3.18831 2.4818 3.133 2.44527 3.0722 2.42046C3.0114 2.39566 2.94632 2.38307 2.88066 2.38342C2.815 2.38377 2.75005 2.39705 2.68952 2.4225C2.62899 2.44795 2.57407 2.48508 2.52788 2.53175C2.4817 2.57843 2.44517 2.63375 2.42036 2.69454C2.39556 2.75534 2.38297 2.82043 2.38332 2.88609M3.38332 2.88076L2.38332 2.88609M12.5747 3.42542L11.868 4.13209M12.5747 3.42542C15.1213 5.97209 15.1473 10.0874 12.6173 12.6174M4.08932 4.08942C6.22266 1.95676 9.70466 1.96942 11.868 4.13209M11.868 4.13209C14.0307 6.29542 14.0433 9.77742 11.9107 11.9108M12.6173 12.6174C10.0873 15.1481 5.97199 15.1214 3.42532 12.5748L4.13199 11.8681C6.29532 14.0308 9.77732 14.0434 11.9107 11.9108M12.6173 12.6174L11.9107 11.9108M2.55132 7.19009C2.5609 7.12474 2.55744 7.05814 2.54114 6.99414C2.52484 6.93014 2.49602 6.87 2.45634 6.8172C2.41667 6.7644 2.36692 6.71998 2.30999 6.68652C2.25305 6.65305 2.19005 6.63119 2.12461 6.62221C2.05918 6.61322 1.99262 6.61729 1.92877 6.63418C1.86492 6.65107 1.80505 6.68044 1.75261 6.72059C1.70018 6.76075 1.65621 6.8109 1.62327 6.86814C1.59032 6.92538 1.56904 6.98858 1.56066 7.05409L2.55132 7.19009ZM1.55999 7.05342C1.42291 8.05515 1.51996 9.07501 1.8435 10.0329C2.16703 10.9908 2.70826 11.8606 3.42466 12.5741L4.13132 11.8674C3.52405 11.263 3.06525 10.526 2.79098 9.71427C2.51671 8.90256 2.43445 8.0383 2.55066 7.18942L1.55999 7.05342Z" stroke="#7D7D7D" stroke-width="0.5"/>
</g>
</g>
</g>
</svg>
