<svg width="32" height="32" viewBox="0 0 32 32" fill="none" xmlns="http://www.w3.org/2000/svg">
<g id="iconoir:air-conditioner">
<path id="Vector" d="M29.3334 14.6669V4.80024C29.3334 4.58807 29.2491 4.38459 29.0991 4.23456C28.9491 4.08453 28.7456 4.00024 28.5334 4.00024H3.46675C3.25457 4.00024 3.05109 4.08453 2.90106 4.23456C2.75103 4.38459 2.66675 4.58807 2.66675 4.80024V14.6669M29.3334 14.6669H2.66675M29.3334 14.6669L28.2801 18.1122C28.1133 18.6584 27.7756 19.1367 27.3167 19.4766C26.8578 19.8164 26.3018 20 25.7307 20.0002H24.0001M2.66675 14.6669L3.72008 18.1122C3.88684 18.6584 4.22454 19.1367 4.68347 19.4766C5.14241 19.8164 5.69833 20 6.26941 20.0002H8.00008M24.0001 9.33358H25.3334M12.6667 19.3336C12.6667 19.3336 12.6667 28.6669 8.00008 28.6669M19.3334 19.3336C19.3334 19.3336 19.3334 28.6669 24.0001 28.6669M16.0001 19.3336V28.6669" stroke="#2BCA1D" stroke-width="2" stroke-linecap="round" stroke-linejoin="round"/>
</g>
</svg>
