<svg width="20" height="20" viewBox="0 0 20 20" fill="none" xmlns="http://www.w3.org/2000/svg">
<g id="pepicons-pop:bulletin-notice">
<g id="Group 48">
<path id="Vector" fill-rule="evenodd" clip-rule="evenodd" d="M1 7.14399C1 6.67003 1.18828 6.21549 1.52342 5.88035C1.85856 5.54521 2.3131 5.35693 2.78706 5.35693H17.0835C17.5575 5.35693 18.012 5.54521 18.3472 5.88035C18.6823 6.21549 18.8706 6.67003 18.8706 7.14399V16.9728C18.8706 17.4468 18.6823 17.9013 18.3472 18.2365C18.012 18.5716 17.5575 18.7599 17.0835 18.7599H2.78706C2.3131 18.7599 1.85856 18.5716 1.52342 18.2365C1.18828 17.9013 1 17.4468 1 16.9728V7.14399ZM17.0835 7.14399H2.78706V16.9728H17.0835V7.14399Z" fill="#7D7D7D" stroke="#FAFAFA" stroke-width="0.446765"/>
<path id="Vector_2" fill-rule="evenodd" clip-rule="evenodd" d="M6.13781 9.378C6.13781 9.20027 6.20841 9.02981 6.33409 8.90414C6.45976 8.77846 6.63022 8.70785 6.80795 8.70785H13.0627C13.2404 8.70785 13.4108 8.77846 13.5365 8.90414C13.6622 9.02981 13.7328 9.20027 13.7328 9.378C13.7328 9.55574 13.6622 9.72619 13.5365 9.85187C13.4108 9.97754 13.2404 10.0481 13.0627 10.0481H6.80795C6.63022 10.0481 6.45976 9.97754 6.33409 9.85187C6.20841 9.72619 6.13781 9.55574 6.13781 9.378ZM5.24428 12.0586C5.24428 11.8809 5.31488 11.7104 5.44056 11.5847C5.56624 11.459 5.73669 11.3884 5.91442 11.3884H13.9562C14.1339 11.3884 14.3044 11.459 14.4301 11.5847C14.5557 11.7104 14.6263 11.8809 14.6263 12.0586C14.6263 12.2363 14.5557 12.4068 14.4301 12.5325C14.3044 12.6581 14.1339 12.7287 13.9562 12.7287H5.91442C5.73669 12.7287 5.56624 12.6581 5.44056 12.5325C5.31488 12.4068 5.24428 12.2363 5.24428 12.0586ZM6.13781 14.7392C6.13781 14.5614 6.20841 14.391 6.33409 14.2653C6.45976 14.1396 6.63022 14.069 6.80795 14.069H13.0627C13.2404 14.069 13.4108 14.1396 13.5365 14.2653C13.6622 14.391 13.7328 14.5614 13.7328 14.7392C13.7328 14.9169 13.6622 15.0874 13.5365 15.213C13.4108 15.3387 13.2404 15.4093 13.0627 15.4093H6.80795C6.63022 15.4093 6.45976 15.3387 6.33409 15.213C6.20841 15.0874 6.13781 14.9169 6.13781 14.7392ZM11.1988 4.3099C10.8636 3.97488 10.4092 3.78668 9.93531 3.78668C9.46144 3.78668 9.00698 3.97488 8.67186 4.3099L5.20586 7.7768C5.12284 7.85976 5.02429 7.92555 4.91585 7.97043C4.8074 8.0153 4.69118 8.03838 4.57381 8.03833C4.45645 8.03829 4.34024 8.01514 4.23183 7.97018C4.12342 7.92523 4.02492 7.85937 3.94196 7.77635C3.859 7.69333 3.7932 7.59479 3.74833 7.48634C3.70345 7.3779 3.68038 7.26167 3.68042 7.14431C3.68046 7.02695 3.70362 6.91074 3.74857 6.80233C3.79352 6.69391 3.85939 6.59541 3.94241 6.51245L7.40841 3.04645C8.07865 2.37641 8.98758 2 9.93531 2C10.883 2 11.792 2.37641 12.4622 3.04645L15.9291 6.51245C16.0966 6.68012 16.1907 6.90747 16.1906 7.14449C16.1906 7.38152 16.0963 7.60881 15.9287 7.77635C15.761 7.94389 15.5336 8.03797 15.2966 8.03789C15.0596 8.0378 14.8323 7.94357 14.6648 7.7759L11.1988 4.3099Z" fill="#7D7D7D" stroke="#FAFAFA" stroke-width="0.446765"/>
</g>
</g>
</svg>
