<svg width="32" height="32" viewBox="0 0 32 32" fill="none" xmlns="http://www.w3.org/2000/svg">
<g id="ico">
<path id="Vector" fill-rule="evenodd" clip-rule="evenodd" d="M10.9276 9.71428C10.9276 8.46398 11.4243 7.26488 12.3084 6.38078C13.1925 5.49668 14.3916 5 15.6419 5C16.8922 5 18.0913 5.49668 18.9754 6.38078C19.8595 7.26488 20.3562 8.46398 20.3562 9.71428C20.3562 10.9646 19.8595 12.1637 18.9754 13.0478C18.0913 13.9319 16.8922 14.4286 15.6419 14.4286C14.3916 14.4286 13.1925 13.9319 12.3084 13.0478C11.4243 12.1637 10.9276 10.9646 10.9276 9.71428ZM7.00013 24.4909C7.03545 22.2223 7.96146 20.0585 9.57827 18.4667C11.1951 16.8749 13.373 15.9827 15.6419 15.9827C17.9108 15.9827 20.0888 16.8749 21.7056 18.4667C23.3224 20.0585 24.2484 22.2223 24.2837 24.4909C24.2865 24.6437 24.2446 24.7939 24.1633 24.9232C24.082 25.0525 23.9647 25.1553 23.8259 25.219C21.2582 26.3957 18.4664 27.0032 15.6419 27C12.7233 27 9.95022 26.363 7.45793 25.219C7.31911 25.1553 7.20187 25.0525 7.12056 24.9232C7.03925 24.7939 6.9974 24.6437 7.00013 24.4909Z" fill="#FAFAFA"/>
</g>
</svg>
