<svg width="32" height="32" viewBox="0 0 32 32" fill="none" xmlns="http://www.w3.org/2000/svg">
<g id="ico">
<path id="Union" fill-rule="evenodd" clip-rule="evenodd" d="M21.8397 14.6863C21.8397 18.637 18.637 21.8397 14.6863 21.8397C10.7356 21.8397 7.53288 18.637 7.53288 14.6863C7.53288 10.7356 10.7356 7.53287 14.6863 7.53287C18.637 7.53287 21.8397 10.7356 21.8397 14.6863ZM20.2627 21.3466C18.7539 22.6112 16.809 23.3726 14.6863 23.3726C9.88899 23.3726 6 19.4836 6 14.6863C6 9.88898 9.88899 6 14.6863 6C19.4836 6 23.3726 9.88898 23.3726 14.6863C23.3726 16.809 22.6112 18.7539 21.3466 20.2627L26 24.9161L24.9161 26L20.2627 21.3466Z" fill="#7D7D7D"/>
</g>
</svg>
