<svg width="20" height="20" viewBox="0 0 20 20" fill="none" xmlns="http://www.w3.org/2000/svg">
<path d="M9.13733 3.47145C9.52367 2.81247 10.4763 2.81247 10.8627 3.47145L12.3745 6.05017C12.5155 6.29065 12.7505 6.46137 13.0228 6.52114L15.9424 7.16212C16.6886 7.32592 16.9829 8.23194 16.4756 8.80302L14.4903 11.0377C14.3051 11.2461 14.2154 11.5224 14.2427 11.7998L14.5353 14.7746C14.6101 15.5349 13.8394 16.0948 13.1395 15.7888L10.4006 14.5912C10.1452 14.4795 9.85478 14.4795 9.59936 14.5912L6.86053 15.7888C6.16063 16.0948 5.38992 15.5349 5.4647 14.7746L5.75733 11.7998C5.78462 11.5224 5.69487 11.2461 5.50972 11.0377L3.5244 8.80302C3.01705 8.23194 3.31144 7.32591 4.05756 7.16212L6.97725 6.52114C7.24953 6.46137 7.4845 6.29065 7.62549 6.05017L9.13733 3.47145Z" fill="#FFC700"/>
<mask id="mask0_4317_8460" style="mask-type:alpha" maskUnits="userSpaceOnUse" x="3" y="2" width="14" height="14">
<path d="M9.13733 3.47145C9.52367 2.81247 10.4763 2.81247 10.8627 3.47145L12.3745 6.05017C12.5155 6.29065 12.7505 6.46137 13.0228 6.52114L15.9424 7.16212C16.6886 7.32592 16.9829 8.23194 16.4756 8.80302L14.4903 11.0377C14.3051 11.2461 14.2154 11.5224 14.2427 11.7998L14.5353 14.7746C14.6101 15.5349 13.8394 16.0948 13.1395 15.7888L10.4006 14.5912C10.1452 14.4795 9.85478 14.4795 9.59936 14.5912L6.86053 15.7888C6.16063 16.0948 5.38992 15.5349 5.4647 14.7746L5.75733 11.7998C5.78462 11.5224 5.69487 11.2461 5.50972 11.0377L3.5244 8.80302C3.01705 8.23194 3.31144 7.32591 4.05756 7.16212L6.97725 6.52114C7.24953 6.46137 7.4845 6.29065 7.62549 6.05017L9.13733 3.47145Z" fill="#FFC700"/>
</mask>
<g mask="url(#mask0_4317_8460)">
<rect x="10" y="2" width="11" height="15" fill="#F2F2F2"/>
</g>
</svg>
