<svg width="15" height="16" viewBox="0 0 15 16" fill="none" xmlns="http://www.w3.org/2000/svg">
<g id="Group">
<path id="Vector" d="M7.165 0C11.1222 0 14.33 3.20777 14.33 7.165C14.33 11.1222 11.1222 14.33 7.165 14.33C3.20777 14.33 0 11.1222 0 7.165C0 3.20777 3.20777 0 7.165 0ZM7.165 1.433C5.64478 1.433 4.18682 2.03691 3.11186 3.11186C2.03691 4.18682 1.433 5.64478 1.433 7.165C1.433 8.68522 2.03691 10.1432 3.11186 11.2181C4.18682 12.2931 5.64478 12.897 7.165 12.897C8.68522 12.897 10.1432 12.2931 11.2181 11.2181C12.2931 10.1432 12.897 8.68522 12.897 7.165C12.897 5.64478 12.2931 4.18682 11.2181 3.11186C10.1432 2.03691 8.68522 1.433 7.165 1.433ZM7.165 2.866C7.34049 2.86602 7.50988 2.93045 7.64102 3.04707C7.77217 3.16369 7.85595 3.32438 7.87648 3.49867L7.8815 3.5825V6.86837L9.82106 8.80793C9.94957 8.93687 10.0242 9.10989 10.0297 9.29185C10.0353 9.4738 9.97138 9.65105 9.85098 9.78759C9.73058 9.92413 9.56273 10.0097 9.38151 10.027C9.20029 10.0442 9.0193 9.99189 8.87529 9.88054L8.80793 9.82106L6.65843 7.67157C6.54708 7.56011 6.47556 7.41506 6.45495 7.25886L6.4485 7.165V3.5825C6.4485 3.39247 6.52399 3.21023 6.65836 3.07586C6.79273 2.94149 6.97497 2.866 7.165 2.866Z" fill="#ADADAD"/>
</g>
</svg>
