<svg width="16" height="16" viewBox="0 0 16 16" fill="none" xmlns="http://www.w3.org/2000/svg">
<g id="solar:user-bold">
<path id="Vector" d="M10.0668 3.99992C10.0668 5.14131 9.14155 6.06659 8.00016 6.06659C6.85877 6.06659 5.9335 5.14131 5.9335 3.99992C5.9335 2.85853 6.85877 1.93325 8.00016 1.93325C9.14155 1.93325 10.0668 2.85853 10.0668 3.99992Z" stroke="#ADADAD" stroke-width="1.2"/>
<path id="Vector_2" d="M12.7335 11.6665C12.7335 12.547 12.7013 12.9859 12.288 13.3225C12.0582 13.5096 11.6627 13.7013 10.9645 13.8427C10.2689 13.9835 9.31291 14.0665 8.0002 14.0665C6.68749 14.0665 5.73147 13.9835 5.03591 13.8427C4.33771 13.7013 3.94218 13.5096 3.71242 13.3225C3.29912 12.9859 3.26687 12.547 3.26687 11.6665C3.26687 11.1512 3.64459 10.5624 4.5232 10.0682C5.38297 9.58457 6.61109 9.2665 8.0002 9.2665C9.38932 9.2665 10.6174 9.58457 11.4772 10.0682C12.3558 10.5624 12.7335 11.1512 12.7335 11.6665Z" stroke="#ADADAD" stroke-width="1.2"/>
</g>
</svg>
