<svg width="100" height="100" viewBox="0 0 100 100" fill="none" xmlns="http://www.w3.org/2000/svg">
<g clip-path="url(#clip0_4043_3711)">
<path d="M78.5621 53.814C78.5621 53.814 87.9267 47.2255 90.2276 38.6491C92.5285 30.0727 88.0615 19.5909 77.0397 19.7384L66.1267 34.5128L78.5621 53.814Z" fill="#383131"/>
<path d="M75.0607 43.6187C82.4332 58.5406 83.6467 78.5493 65.2176 86.4139C46.7886 94.2785 32.5829 83.0632 25.2104 68.137C17.8379 53.2151 19.4994 32.9937 35.0535 25.3418C50.6075 17.6898 67.6882 28.6925 75.0607 43.6187Z" fill="#F5D4B5"/>
<path d="M51.45 75.8C55.3 76.5333 64.1 76.35 68.5 69.75" stroke="#222448" stroke-width="3.3" stroke-linecap="round"/>
<path d="M34.2358 48.354C34.2358 48.0111 34.5054 40.294 33.2875 37.7203C33.2875 37.7203 49.5636 45.5718 62.5862 42.1864C75.6087 38.801 79.0014 33.2541 79.0014 33.2541C79.0014 33.2541 83.7555 26.3878 81.1718 22.4251C77.5661 16.8912 67.0662 18.228 62.5905 19.9902C62.5905 19.9902 42.4129 9.54311 15.3848 27.0301C15.3848 27.0301 2.55792 34.63 11.1222 55.3071L20.1301 61.4095L34.2358 48.354Z" fill="#4E4E4E"/>
<path d="M28.4639 83.3974C37.8637 83.3974 45.4838 74.0078 45.4838 62.4251C45.4838 50.8425 37.8637 41.4529 28.4639 41.4529C19.0642 41.4529 11.4441 50.8425 11.4441 62.4251C11.4441 74.0078 19.0642 83.3974 28.4639 83.3974Z" fill="#222448"/>
<path d="M22.3441 76.4964C27.8572 76.4964 32.3263 70.1965 32.3263 62.4252C32.3263 54.6538 27.8572 48.3539 22.3441 48.3539C16.8311 48.3539 12.3619 54.6538 12.3619 62.4252C12.3619 70.1965 16.8311 76.4964 22.3441 76.4964Z" fill="#89C2F9"/>
<path d="M25.0104 19.044C13.5667 28.6925 13.0448 46.6005 13.2274 52.7637C10.8526 54.5519 9.54337 58.2064 9.54337 62.4252C9.54337 68.4061 11.9835 73.8618 17.2769 73.8618C21.8483 73.8618 25.0104 67.2299 25.0104 62.4252C25.0104 58.9269 24.6363 55.8193 22.8878 53.8401C23.0748 39.7645 28.9424 32.0388 28.9424 32.0388C40.8776 13.3582 62.5819 19.9902 62.5819 19.9902C56.7491 12.1386 38.9812 7.26882 25.006 19.044H25.0104Z" fill="#53A2F6"/>
<path d="M83.2684 76.4964C88.0247 76.4964 91.8805 73.5874 91.8805 69.999C91.8805 66.4105 88.0247 63.5016 83.2684 63.5016C78.512 63.5016 74.6562 66.4105 74.6562 69.999C74.6562 73.5874 78.512 76.4964 83.2684 76.4964Z" fill="#222448"/>
</g>
<defs>
<clipPath id="clip0_4043_3711">
<rect width="84.7" height="77" fill="white" transform="translate(8 12)"/>
</clipPath>
</defs>
</svg>
