<svg width="100" height="100" viewBox="0 0 100 100" fill="none" xmlns="http://www.w3.org/2000/svg">
<g clip-path="url(#clip0_4043_3710)">
<path d="M41.8012 39.0359L11 18.9486V72.8127C11 74.1352 11.6612 75.3594 12.7603 76.0921L40.2017 94.3388C41.2115 95.0089 42.4714 95.1787 43.6152 94.7945L84.2456 81.3731C87.6233 80.2562 89.9019 77.1019 89.9019 73.5544V23.1483L41.8012 39.0359Z" fill="#C0BEE3"/>
<path d="M84.7013 81.2391L44.1781 94.9196C43.4454 95.1608 42.6859 94.6158 42.6859 93.8473V39.0449L89.893 23.1573V74.0548C89.893 77.3253 87.7931 80.2204 84.6924 81.248L84.7013 81.2391Z" fill="#E6E5F4"/>
<path d="M82.6459 71.1179C87.9568 61.4453 85.7325 50.0189 77.6778 45.5962C69.6231 41.1736 58.7881 45.4295 53.4771 55.1021C48.1662 64.7747 50.3904 76.2012 58.4451 80.6238C66.4999 85.0464 77.3349 80.7905 82.6459 71.1179Z" fill="#222448"/>
<path d="M38.1287 37.6599L11.7328 20.3158C10.5801 19.5562 10.8303 17.8048 12.1438 17.3938L49.4949 5.75064C53.9091 4.37455 58.6897 4.90175 62.7018 7.19822L89.0799 22.3352C90.313 23.0411 90.1164 24.873 88.7582 25.3019L45.9921 38.75C43.3382 39.5811 40.452 39.179 38.1287 37.651V37.6599Z" fill="#D9D8F4"/>
<path d="M78.6122 68.4972C82.1583 62.0388 80.6741 54.4097 75.2971 51.4574C69.9201 48.505 62.6864 51.3472 59.1402 57.8057C55.594 64.2642 57.0782 71.8932 62.4553 74.8456C67.8323 77.798 75.066 74.9557 78.6122 68.4972Z" fill="#89C2F9"/>
<path d="M58.091 45.3803L47.1626 48.4184C46.6533 48.5614 46.144 48.1771 46.144 47.641V42.3779C46.144 42.0205 46.3852 41.6988 46.7337 41.6005L58.1982 38.5802C58.7075 38.4373 59.2169 38.8215 59.2169 39.3576V43.8969C59.2169 44.5403 58.7075 45.2015 58.091 45.3803Z" fill="#3E4273"/>
<path d="M82.8249 40.0635C84.9469 40.0635 86.6672 38.3433 86.6672 36.2212C86.6672 34.0991 84.9469 32.3789 82.8249 32.3789C80.7028 32.3789 78.9825 34.0991 78.9825 36.2212C78.9825 38.3433 80.7028 40.0635 82.8249 40.0635Z" fill="#3E4273"/>
</g>
<defs>
<clipPath id="clip0_4043_3710">
<rect width="78.9019" height="90" fill="white" transform="translate(11 5)"/>
</clipPath>
</defs>
</svg>
