<svg width="100" height="100" viewBox="0 0 100 100" fill="none" xmlns="http://www.w3.org/2000/svg">
<g clip-path="url(#clip0_4107_6676)">
<path d="M17.4723 8.61365L18.5431 7.52713C19.7241 6.32252 21.4247 5.77926 23.0939 6.07844L72.5304 14.9202C74.9711 15.3532 76.7505 17.479 76.7505 19.9591V87.6696C76.7505 89.6222 75.6403 91.4015 73.8925 92.2597L71.436 93.4722C70.318 94.0233 69.0425 94.1493 67.8458 93.8265L19.7949 80.93C17.5589 80.3316 16 78.3003 16 75.9856V12.2039C16 10.8575 16.5275 9.5742 17.4723 8.61365Z" fill="#E6E5F4"/>
<path d="M69.444 94L20.4989 81.3527C17.8503 80.6684 16 78.2791 16 75.5435V11.716C16 10.85 16.7795 10.1965 17.6298 10.354L66.2475 19.1248C68.0977 19.4555 69.4519 21.0695 69.4519 22.9591V94.0079L69.444 94Z" fill="#F9EEF0"/>
<path d="M32.1324 36.265V47.941C32.1324 48.4278 32.483 48.8439 32.9628 48.9265L52.142 52.2276C52.7531 52.3328 53.3117 51.8622 53.3117 51.2421V41.737L42.722 31.0529L32.1324 36.265Z" fill="#89C2F9"/>
<path d="M27.8415 36.6272L28.0855 36.9263C28.8886 37.9026 30.2586 38.1782 31.3766 37.5956L42.3992 31.8244L53.7132 42.603C54.7367 43.5793 56.335 43.5872 57.3664 42.6187C58.4923 41.5716 58.4923 39.7922 57.3821 38.7372L43.8952 25.9824C43.1393 25.266 42.0134 25.1321 41.108 25.636L28.6052 32.6118C27.1565 33.4227 26.7864 35.3517 27.8493 36.635L27.8415 36.6272Z" fill="#53A2F6"/>
<path d="M37.72 41.3686V49.7143L46.3255 51.1079V42.6756C46.3255 42.6756 43.7194 39.5499 37.72 41.3686Z" fill="#53A2F6"/>
<path d="M23.2986 53.9642L62.1455 62.0501" stroke="#2C315B" stroke-width="1.57466" stroke-miterlimit="10" stroke-linecap="round"/>
<path d="M23.2986 62.0501L62.1455 70.1281" stroke="#2C315B" stroke-width="1.57466" stroke-miterlimit="10" stroke-linecap="round"/>
<path d="M45.8871 83.0246C45.8871 83.0246 52.9101 83.749 54.8155 72.6004C54.9257 71.9705 54.2801 71.4745 53.6975 71.7343C51.9417 72.5295 48.9499 74.6395 48.2255 79.891C47.1862 87.4494 53.2408 83.0325 53.2408 83.0325C53.2408 83.0325 56.5712 81.4578 56.8311 82.7648C57.0909 84.0718 58.138 87.7014 60.7441 84.3237" stroke="#2C315B" stroke-width="1.57466" stroke-miterlimit="10" stroke-linecap="round"/>
<path d="M69.3889 32.2182V72.6319C69.3889 72.6319 69.3889 75.4584 74.3885 82.694C74.8845 83.4104 75.9316 83.4498 76.467 82.7648C78.1677 80.6075 81.3406 76.3166 81.9075 73.6711C82.6869 70.0179 81.9075 32.2182 81.9075 32.2182C81.9075 32.2182 81.2146 28.3051 75.8214 28.3051C70.4282 28.3051 69.3889 32.2182 69.3889 32.2182Z" fill="#222448"/>
<mask id="mask0_4107_6676" style="mask-type:luminance" maskUnits="userSpaceOnUse" x="69" y="24" width="14" height="56">
<path d="M69.3889 28.5885V69.0022C69.3889 69.0022 69.3889 71.8287 74.3885 79.0643C74.8845 79.7808 75.9316 79.8202 76.467 79.1352C78.1677 76.9779 81.8445 72.6948 82.1594 70.01C82.561 66.53 81.9075 28.5885 81.9075 28.5885C81.9075 28.5885 81.2146 24.6755 75.8214 24.6755C70.4282 24.6755 69.3889 28.5885 69.3889 28.5885Z" fill="white"/>
</mask>
<g mask="url(#mask0_4107_6676)">
<path d="M69.381 37.9026V67.1914C69.381 67.1914 76.4749 72.1279 82.2539 67.1914V37.9026C82.2539 37.9026 76.7741 44.2092 69.381 37.9026Z" fill="#89C2F9"/>
<path d="M75.8136 37.9026V69.3723C75.8136 69.3723 79.8369 69.6478 82.2461 67.1914V37.9026C82.2461 37.9026 83.2066 44.2092 75.8136 37.9026Z" fill="#53A2F6"/>
<path d="M66.2475 37.2255C66.2475 37.2255 72.6249 48.4529 84.8128 38.6664V31.3678C84.8128 31.3678 75.9474 37.6271 68.9087 31.3678L66.2475 37.2255Z" fill="#2C315B"/>
<path d="M69.4204 30.9033C69.4204 30.9033 68.8299 36.3595 75.8765 36.5563C82.9232 36.7532 82.5295 30.9033 82.5295 30.9033C82.5295 30.9033 81.7422 27.376 75.971 27.376C70.1999 27.376 69.4204 30.9033 69.4204 30.9033Z" fill="#3B406E"/>
</g>
<path d="M81.4665 48.0356C82.9276 48.0356 84.112 43.7844 84.112 38.5404C84.112 33.2963 82.9276 29.0452 81.4665 29.0452C80.0055 29.0452 78.8211 33.2963 78.8211 38.5404C78.8211 43.7844 80.0055 48.0356 81.4665 48.0356Z" fill="#222448"/>
</g>
<defs>
<clipPath id="clip0_4107_6676">
<rect width="68.8127" height="88" fill="white" transform="translate(16 6)"/>
</clipPath>
</defs>
</svg>
