<svg width="100" height="100" viewBox="0 0 100 100" fill="none" xmlns="http://www.w3.org/2000/svg">
<g clip-path="url(#clip0_4043_3708)">
<path d="M98.2872 26.0185C99.1873 26.6007 99.7246 27.5948 99.7246 28.665V65.9168C99.7246 65.9168 99.9127 69.4095 95.9542 72.1366L84.2444 66.5661L76.5424 50.0426L76.9365 24.4423L74.4109 17.1209C74.4109 17.1209 78.2082 16.606 81.9786 17.7254C85.9416 18.9031 94.8079 23.7751 98.2872 26.023V26.0185Z" fill="#C0BEE3"/>
<path d="M1 36.5416V61.206C1 61.206 3.57928 75.3159 19.0863 81.6163C22.2791 82.9149 25.7763 83.3045 29.1795 82.7627L95.9587 72.1366C95.9587 72.1366 79.0008 61.5866 78.0605 50.656C77.344 42.3405 77.6082 26.941 77.7784 20.045C77.8231 18.2314 76.2066 16.8254 74.4154 17.1209L8.28109 27.9664C6.48545 28.262 4.82862 29.1128 3.54346 30.3979C1.91349 32.0279 1 34.2355 1 36.5416Z" fill="#D9D8F4"/>
<path d="M9.70507 59.7148C9.70507 59.7148 13.1799 72.5172 20.6088 73.6232C28.0377 74.7293 71.0257 66.669 71.0257 66.669C71.0257 66.669 75.2662 66.1675 72.6064 61.9269C69.4091 56.831 65.782 48.4663 65.782 48.4663L9.70059 59.7148H9.70507Z" fill="#F9EEF0"/>
<path d="M7.45714 50.2172C7.45714 50.2172 7.45714 56.7549 9.817 60.0238L67.5732 52.0307C67.5732 52.0307 66.785 48.4081 66.2656 44.0197C66.1044 42.6495 65.3835 41.4091 64.2058 40.6926C63.3281 40.1598 62.2937 39.9493 61.2817 40.106L9.09158 48.2155C9.09158 48.2155 7.34967 48.1752 7.45714 50.2127V50.2172Z" fill="#E6E5F4"/>
<path d="M54.0096 36.1386C56.0474 36.1386 57.6994 34.4866 57.6994 32.4488C57.6994 30.411 56.0474 28.759 54.0096 28.759C51.9717 28.759 50.3198 30.411 50.3198 32.4488C50.3198 34.4866 51.9717 36.1386 54.0096 36.1386Z" fill="#757AB4"/>
<path d="M64.7923 34.6923C66.8302 34.6923 68.4821 33.0403 68.4821 31.0025C68.4821 28.9646 66.8302 27.3127 64.7923 27.3127C62.7545 27.3127 61.1025 28.9646 61.1025 31.0025C61.1025 33.0403 62.7545 34.6923 64.7923 34.6923Z" fill="#3E4273"/>
</g>
<defs>
<clipPath id="clip0_4043_3708">
<rect width="98.7291" height="66" fill="white" transform="translate(1 17)"/>
</clipPath>
</defs>
</svg>
