<svg width="100" height="100" viewBox="0 0 100 100" fill="none" xmlns="http://www.w3.org/2000/svg">
<path d="M33.9014 44.1001L11.7373 27.7019C7.01523 23.9326 6.72295 16.8571 11.1167 12.7101C15.2428 8.81739 21.785 9.16091 25.4784 13.4654L43.486 34.4528L33.9033 44.1001H33.9014Z" fill="#333962"/>
<path d="M15.8838 71.8443L15.3751 77.1358C15.3751 77.7507 15.5763 78.3485 15.9464 78.8382L23.5306 88.8764C24.4416 90.0816 26.1383 90.3568 27.3834 89.5027L89.1613 47.1275C89.9299 46.5998 90.3892 45.7287 90.3892 44.7968L89.632 39.1504L25.4228 84.961L15.8838 71.8443Z" fill="#53A2F6"/>
<path d="M34.1141 59.5644C34.1141 59.5644 29.3807 37.4136 42.1519 34.6464C42.1519 34.6464 50.7116 33.2173 63.2304 41.3442L34.1141 59.5644Z" fill="#ACB0D5"/>
<path d="M37.3273 59.2076C37.3273 59.2076 34.7594 47.3019 38.0466 39.9834C39.6276 36.4627 43.2811 34.3769 47.1245 34.7337C50.6186 35.0583 56.7451 36.4438 64.5703 41.5245L37.3292 59.2095L37.3273 59.2076Z" fill="#E6E5F4"/>
<path d="M26.4155 84.5852L89.3416 40.9022C89.9148 40.5056 90.0439 39.7141 89.6301 39.1523L81.0514 27.5502C80.6548 27.015 79.9051 26.8897 79.3566 27.2674L16.4171 70.7397C15.8459 71.1345 15.7111 71.9221 16.1211 72.482L24.713 84.2967C25.1078 84.8395 25.8651 84.9686 26.4155 84.5852Z" fill="#89C2F9"/>
</svg>
