<svg width="100" height="100" viewBox="0 0 100 100" fill="none" xmlns="http://www.w3.org/2000/svg">
<g clip-path="url(#clip0_4045_4423)">
<path d="M11.527 73.3955L19.4366 85.4592C19.9116 86.1829 20.715 86.6164 21.579 86.6164H70.1076C71.8355 86.6164 73.3754 85.5293 73.9556 83.9002L93.0457 30.1559C93.9352 27.6533 92.0797 25.0231 89.4209 25.0231H36.3684L11.4186 70.7622C10.9659 71.5911 11.0074 72.6049 11.5238 73.3955H11.527Z" fill="#89C2F9"/>
<path d="M22.4366 76.3605L24.3558 79.3445C24.7001 79.8801 25.2899 80.2053 25.9243 80.2084C32.4343 80.2435 64.4871 83.9034 68.1884 80.2021C72.1958 76.1947 85.4773 33.8828 88.0118 26.3143C88.2286 25.6671 88.0787 24.9562 87.6165 24.4525L81.5113 19.5365C80.5454 18.4781 78.8015 18.8447 78.3424 20.1996L60.9994 71.3488C60.7443 72.0948 60.0525 72.6049 59.2619 72.6241L23.97 73.4657C22.5035 73.5008 21.6396 75.1267 22.4334 76.3636L22.4366 76.3605Z" fill="#E9E7F3"/>
<path d="M11.4951 64.6539L33.1739 18.3633C34.4109 15.7204 36.9805 13.951 39.8912 13.7342L76.7962 10.9925C76.7962 10.9925 82.5028 12.6567 81.5527 16.9382L61.9621 70.3669C61.1555 72.5667 59.0865 74.0491 56.7433 74.1097L13.0605 75.2032C10.4654 72.3212 9.85011 68.164 11.4951 64.6507V64.6539Z" fill="#89C2F9"/>
<path d="M36.7701 74.6708C36.7701 74.6708 31.2707 86.3072 32.1857 92.3008C32.1857 92.3008 32.8902 94.8384 36.4864 91.8767C40.0825 88.915 38.9539 89.4092 38.9539 89.4092C38.9539 89.4092 40.4364 92.6323 43.3248 93.3146C46.2131 93.9968 47.6956 85.1786 47.7689 82.5708C47.8422 79.963 48.1228 74.3265 48.1228 74.3265L36.7701 74.6708Z" fill="#43467B"/>
<mask id="mask0_4045_4423" style="mask-type:luminance" maskUnits="userSpaceOnUse" x="31" y="74" width="17" height="20">
<path d="M36.6457 74.6421C36.6457 74.6421 31.1463 86.2785 32.0613 92.2721C32.0613 92.2721 32.7659 94.8098 36.362 91.8481C39.9581 88.8864 38.8295 89.3805 38.8295 89.3805C38.8295 89.3805 40.312 92.6036 43.2004 93.2859C46.0888 93.9681 47.5712 85.1499 47.6445 82.5421C47.7179 79.9343 47.9984 74.2978 47.9984 74.2978L36.6457 74.6421Z" fill="white"/>
</mask>
<g mask="url(#mask0_4045_4423)">
<path d="M35.7372 92.9607C35.7372 92.9607 35.7372 88.6185 37.7998 86.4698C37.7998 86.4698 38.1314 89.6547 41.0261 92.594C43.9209 95.5334 35.7372 92.9639 35.7372 92.9639V92.9607Z" fill="#333667"/>
</g>
<mask id="mask1_4045_4423" style="mask-type:luminance" maskUnits="userSpaceOnUse" x="10" y="10" width="72" height="66">
<path d="M11.4951 64.6539L33.1739 18.3633C34.4109 15.7204 36.9805 13.951 39.8912 13.7342L76.7962 10.9925C76.7962 10.9925 82.5028 12.6567 81.5527 16.9382L61.9621 70.3669C61.1555 72.5667 59.0865 74.0491 56.7433 74.1097L13.0605 75.2032C10.4654 72.3212 9.85011 68.164 11.4951 64.6507V64.6539Z" fill="white"/>
</mask>
<g mask="url(#mask1_4045_4423)">
<path d="M50.8868 18.985L28.4014 74.8206L7 76.3923L9.6174 63.7868L36.4895 8.85331L52.1876 6L53.8677 12.6981C52.7486 14.7321 51.7508 16.8298 50.8836 18.985H50.8868Z" fill="#53A2F6"/>
</g>
</g>
<path d="M21.142 11.2403C21.2743 10.9353 21.6785 10.9217 21.8372 11.1937L21.8598 11.2403L22.266 12.1788C22.6211 12.9987 23.2105 13.6885 23.9547 14.1548L24.0794 14.2306L24.7991 14.6464C24.8557 14.6794 24.9048 14.726 24.9388 14.7843C24.9747 14.8407 24.9936 14.9067 24.9993 14.9747C25.0031 15.0427 24.9917 15.1088 24.9634 15.171C24.9351 15.2332 24.8935 15.2856 24.8406 15.3264L24.7991 15.3536L24.0775 15.7694C23.3162 16.2085 22.7061 16.8769 22.3245 17.6852L22.2641 17.8212L21.858 18.7597C21.7257 19.0647 21.3215 19.0783 21.1628 18.8063L21.1402 18.7597L20.734 17.8212C20.3789 17.0013 19.7914 16.3115 19.0453 15.8452L18.9206 15.7694L18.2009 15.3536C18.1443 15.3206 18.0952 15.274 18.0612 15.2157C18.0253 15.1593 18.0064 15.0933 18.0007 15.0253C17.9969 14.9573 18.0083 14.8912 18.0366 14.829C18.0649 14.7668 18.1065 14.7144 18.1594 14.6736L18.2009 14.6464L18.9225 14.2306C19.6838 13.7915 20.2939 13.1231 20.6755 12.3148L20.7359 12.1788L21.142 11.2403Z" fill="#FFD540"/>
<path d="M75.8333 39.4209C76.0761 38.8863 76.8292 38.8624 77.1256 39.3411L77.1667 39.4209L77.9199 41.0647C78.5784 42.501 79.6731 43.7059 81.0559 44.5238L81.2905 44.6555L82.628 45.3856C82.735 45.4414 82.8256 45.5252 82.8873 45.625C82.9532 45.7247 82.9902 45.8404 82.9984 45.9561C83.0067 46.0758 82.982 46.1915 82.9326 46.2992C82.8832 46.407 82.805 46.4987 82.7062 46.5705L82.628 46.6184L81.2905 47.3485C79.8789 48.1186 78.743 49.2875 78.0351 50.6999L77.9199 50.9353L77.1667 52.5791C76.9239 53.1137 76.1708 53.1376 75.8744 52.6589L75.8333 52.5791L75.0801 50.9353C74.4217 49.499 73.3269 48.2941 71.9441 47.4762L71.7095 47.3445L70.372 46.6144C70.265 46.5586 70.1744 46.4748 70.1127 46.375C70.0468 46.2753 70.0098 46.1596 70.0016 46.0439C69.9933 45.9242 70.018 45.8085 70.0674 45.7008C70.1168 45.593 70.195 45.5013 70.2938 45.4295L70.372 45.3816L71.7095 44.6515C73.1211 43.8814 74.257 42.7125 74.9649 41.3001L75.0801 41.0647L75.8333 39.4209Z" fill="#FFD540"/>
<path d="M81.0733 64.6007C81.4121 63.839 82.4524 63.8031 82.8629 64.485L82.9227 64.6007L83.9669 66.9495C84.8756 68.9993 86.3902 70.722 88.3072 71.8864L88.6301 72.0739L90.4794 73.1147C90.6269 73.1984 90.7504 73.3141 90.8421 73.4577C90.9338 73.6012 90.9856 73.7647 90.9975 73.9322C91.0095 74.0997 90.9776 74.2672 90.9059 74.4227C90.8341 74.5742 90.7265 74.7098 90.591 74.8095L90.4834 74.8813L88.6301 75.9221C86.6771 77.0228 85.1028 78.6937 84.1263 80.7115L83.9709 81.0505L82.9267 83.3993C82.5879 84.161 81.5476 84.1969 81.1371 83.515L81.0773 83.3993L80.0331 81.0505C79.1244 79.0008 77.6098 77.278 75.6928 76.1136L75.3699 75.9261L73.5206 74.8853C73.3731 74.8016 73.2496 74.6859 73.1579 74.5423C73.0662 74.3988 73.0144 74.2353 73.0025 74.0678C72.9905 73.9003 73.0224 73.7328 73.0941 73.5773C73.1659 73.4258 73.2735 73.2902 73.409 73.1905L73.5166 73.1187L75.3699 72.0779C77.3229 70.9772 78.8972 69.3063 79.8737 67.2885L80.0291 66.9495L81.0733 64.6007Z" fill="#FFD540"/>
<defs>
<clipPath id="clip0_4045_4423">
<rect width="86.2721" height="88" fill="white" transform="translate(7 6)"/>
</clipPath>
</defs>
</svg>
