<svg width="100" height="100" viewBox="0 0 100 100" fill="none" xmlns="http://www.w3.org/2000/svg">
<g clip-path="url(#clip0_4043_3709)">
<path fill-rule="evenodd" clip-rule="evenodd" d="M24.4617 58.5817C26.1101 59.9338 27.2402 61.6263 27.7453 63.2856C30.935 60.3164 35.0066 59.4808 37.4871 61.5155C38.587 62.4177 39.2145 63.7533 39.3846 65.2935C42.756 64.9901 45.9116 68.4134 46.7908 73.1582C47.1633 72.8073 47.5849 72.5174 48.0536 72.2992C51.3699 70.7555 55.8001 73.3868 58.0097 78.185C58.2152 78.0105 58.4358 77.853 58.6714 77.7142C60.3289 76.7372 62.4001 76.8762 64.377 77.8889C64.9685 76.8292 65.9401 76.0351 67.1503 75.5357C67.852 72.6349 71.0934 70.0809 75.3529 69.3829C80.5946 68.5239 85.393 70.8009 86.0704 74.4686C86.5742 77.1967 84.6562 79.9259 81.4832 81.4986C82.2026 83.065 82.3402 84.6959 81.74 86.137C80.3636 89.4414 75.6074 90.5466 70.9295 88.7373C70.9677 91.2994 70.0395 93.5029 68.2101 94.5812C65.0207 96.4611 60.3 94.2092 57.6659 89.5515C57.5656 89.3741 57.4697 89.1958 57.3784 89.0168C56.9707 89.4331 56.4996 89.7731 55.9679 90.0206C52.617 91.5803 48.1289 88.8777 45.9434 83.984C45.6641 83.3586 45.4359 82.7277 45.2574 82.0996C44.2655 83.5439 42.9147 84.4914 41.3538 84.6651C37.7915 85.0615 34.4475 81.2813 33.7438 76.1516C30.8674 78.0875 27.6346 78.418 25.5383 76.6984C23.6948 75.1863 23.1784 72.4566 23.9184 69.5864C21.9534 69.7534 19.6068 68.9828 17.5828 67.3226C14.2022 64.5496 13.0015 60.345 14.9011 57.9313C16.8007 55.5176 21.0811 55.8088 24.4617 58.5817Z" fill="#F9EEF0"/>
<path d="M62.8418 75.394L18.3432 49.7834V58.131C18.3432 58.495 18.5322 58.8336 18.8389 59.0156L62.3105 85.1758C62.6349 85.3688 63.0379 85.3651 63.3553 85.1576L78.3605 75.3575C78.6529 75.1682 78.8276 74.8406 78.8276 74.4911V65.7941L62.8346 75.394H62.8418Z" fill="#53A2F6"/>
<path d="M62.3319 75.9327L18.8496 50.6826C18.1685 50.2858 18.1721 49.2846 18.8567 48.8915L34.4467 40.0015C34.7534 39.8268 35.1278 39.8268 35.4345 40.0051L78.3284 64.9131C78.9952 65.3026 79.0094 66.2819 78.3498 66.686L63.3481 75.9182C63.0379 76.1111 62.6492 76.1147 62.3319 75.9327Z" fill="#89C2F9"/>
<path d="M56.3341 58.3639C53.7952 60.6392 49.9119 60.3006 47.7867 57.6176L47.0271 56.6566V3H56.3341V58.3639Z" fill="#222448"/>
</g>
<path d="M34.9376 18.9185C35.1811 18.3711 35.9309 18.3444 36.2248 18.8364L36.2673 18.9185L37.0178 20.6076C37.6732 22.082 38.7631 23.3212 40.1418 24.1594L40.3738 24.2956L41.7063 25.0447C41.8123 25.104 41.9017 25.1889 41.9664 25.2916C42.0311 25.3943 42.0691 25.5116 42.0769 25.6327C42.0847 25.7539 42.0621 25.8751 42.0111 25.9852C41.9601 26.0954 41.8823 26.1911 41.7848 26.2635L41.707 26.3139L40.3738 27.063C38.9673 27.8542 37.8359 29.0559 37.1309 30.5075L37.0178 30.751L36.2673 32.4401C36.0238 32.9875 35.274 33.0142 34.9801 32.5222L34.9376 32.4401L34.187 30.751C33.5317 29.2766 32.4417 28.0374 31.0631 27.1991L30.8311 27.063L29.4986 26.3139C29.3926 26.2546 29.3032 26.1697 29.2385 26.067C29.1737 25.9643 29.1357 25.847 29.1279 25.7259C29.1201 25.6047 29.1428 25.4835 29.1938 25.3733C29.2448 25.2632 29.3226 25.1675 29.42 25.0951L29.4978 25.0447L30.8311 24.2956C32.2376 23.5044 33.369 22.3027 34.0739 20.8511L34.187 20.6076L34.9376 18.9185Z" fill="#FFD540"/>
<path d="M71.3374 27.418C71.7026 26.5968 72.8274 26.5568 73.2682 27.2948L73.332 27.418L74.4578 29.9516C75.4409 32.1633 77.0757 34.022 79.1438 35.2794L79.4917 35.4836L81.4905 36.6073C81.6494 36.6962 81.7835 36.8235 81.8806 36.9776C81.9777 37.1317 82.0347 37.3076 82.0465 37.4893C82.0582 37.6711 82.0242 37.8528 81.9477 38.0181C81.8711 38.1833 81.7545 38.3268 81.6083 38.4354L81.4916 38.511L79.4917 39.6347C77.3819 40.8214 75.6849 42.6241 74.6274 44.8015L74.4578 45.1667L73.332 47.7004C72.9668 48.5215 71.842 48.5615 71.4012 47.8235L71.3374 47.7004L70.2116 45.1667C69.2285 42.9551 67.5937 41.0963 65.5256 39.8389L65.1777 39.6347L63.1789 38.511C63.02 38.4221 62.8859 38.2948 62.7888 38.1407C62.6917 37.9866 62.6347 37.8107 62.623 37.629C62.6112 37.4473 62.6452 37.2655 62.7217 37.1002C62.7983 36.935 62.9149 36.7915 63.0611 36.6829L63.1778 36.6073L65.1777 35.4836C67.2875 34.2969 68.9845 32.4942 70.042 30.3168L70.2116 29.9516L71.3374 27.418Z" fill="#FFD540"/>
<defs>
<clipPath id="clip0_4043_3709">
<rect width="72.3908" height="94" fill="white" transform="translate(14 3)"/>
</clipPath>
</defs>
</svg>
