<svg width="100" height="100" viewBox="0 0 100 100" fill="none" xmlns="http://www.w3.org/2000/svg">
<path d="M40.382 39.7816L83.1181 82.8434C83.1181 82.8434 87.9943 88.3668 92.8666 85.2795C95.0006 83.93 95.7028 82.2667 95.8166 80.8231C95.9421 79.2225 95.3145 77.6573 94.2004 76.5039L76.4531 58.1408L49.3301 30.8413L40.382 39.7777V39.7816Z" fill="#222448"/>
<mask id="mask0_4088_1596" style="mask-type:luminance" maskUnits="userSpaceOnUse" x="40" y="30" width="56" height="57">
<path d="M40.382 39.7816L83.1181 82.8434C83.1181 82.8434 87.9943 88.3668 92.8666 85.2795C95.0006 83.93 95.7028 82.2667 95.8166 80.8231C95.9421 79.2225 95.3145 77.6573 94.2004 76.5039L76.4531 58.1408L49.3301 30.8413L40.382 39.7777V39.7816Z" fill="white"/>
</mask>
<g mask="url(#mask0_4088_1596)">
<path d="M40.4957 54.5671C40.4957 54.5671 40.1701 43.3554 43.5831 40.2681C46.996 37.1807 52.033 40.7545 53.8218 42.7042C55.6107 44.6539 62.4326 51.6406 66.6576 56.8424C70.8826 62.0441 83.7183 80.5681 91.8427 84.7931C99.967 89.0181 92.8195 94.8671 92.8195 94.8671L49.7577 79.2775L40.4957 54.571V54.5671Z" fill="#43467B"/>
</g>
<path d="M9.37527 27.8284L2.6161 34.5876C2.34542 34.8583 2.12181 35.18 1.98451 35.5409C1.76091 36.1293 1.61968 37.0041 2.32188 37.7063L11.7526 47.137C12.1919 47.5764 12.7254 47.9137 13.3256 48.0707C13.9965 48.2472 14.8438 48.2472 15.546 47.545L22.3013 40.7897C22.5131 40.5779 22.6308 40.2954 22.6308 39.9973V37.1924C22.6308 36.5726 23.1329 36.0744 23.7488 36.0744H26.7302C27.0284 36.0744 27.3108 35.9567 27.5227 35.7449L29.5037 33.7638L38.7304 40.8603C39.1776 41.2056 39.8092 41.1585 40.2054 40.7584L49.7969 30.9982C50.1892 30.598 50.2245 29.9664 49.8793 29.5271L43.2182 21.0575C42.9083 20.6613 42.9162 20.1003 43.2418 19.7159C44.8345 17.825 49.5929 12.5016 53.5472 11.2385C58.3803 9.69675 59.2472 9.6026 62.2326 9.41038C62.2326 9.41038 56.7444 2.38445 43.1711 2C43.1711 2 35.953 2.29029 30.0804 7.10371C24.8315 11.4071 16.1148 20.4063 14.3299 22.2618C14.122 22.4776 14.0122 22.7718 14.0239 23.0699L14.1534 26.2946C14.1769 26.9105 13.6944 27.4283 13.0785 27.444L10.1363 27.5146C9.85387 27.5225 9.58319 27.6362 9.38312 27.8363L9.37527 27.8284Z" fill="#89C2F9"/>
<mask id="mask1_4088_1596" style="mask-type:luminance" maskUnits="userSpaceOnUse" x="1" y="2" width="62" height="47">
<path d="M9.37527 27.8284L2.6161 34.5876C2.34542 34.8583 2.12181 35.18 1.98451 35.5409C1.76091 36.1293 1.61968 37.0041 2.32188 37.7063L11.7526 47.137C12.1919 47.5764 12.7254 47.9137 13.3256 48.0707C13.9965 48.2472 14.8438 48.2472 15.546 47.545L22.3013 40.7897C22.5131 40.5779 22.6308 40.2954 22.6308 39.9973V37.1924C22.6308 36.5726 23.1329 36.0744 23.7488 36.0744H26.7302C27.0284 36.0744 27.3108 35.9567 27.5227 35.7449L29.5037 33.7638L38.7304 40.8603C39.1776 41.2056 39.8092 41.1585 40.2054 40.7584L49.7969 30.9982C50.1892 30.598 50.2245 29.9664 49.8793 29.5271L43.2182 21.0575C42.9083 20.6613 42.9162 20.1003 43.2418 19.7159C44.8345 17.825 49.5929 12.5016 53.5472 11.2385C58.3803 9.69675 59.2472 9.6026 62.2326 9.41038C62.2326 9.41038 56.7444 2.38445 43.1711 2C43.1711 2 35.953 2.29029 30.0804 7.10371C24.8315 11.4071 16.1148 20.4063 14.3299 22.2618C14.122 22.4776 14.0122 22.7718 14.0239 23.0699L14.1534 26.2946C14.1769 26.9105 13.6944 27.4283 13.0785 27.444L10.1363 27.5146C9.85387 27.5225 9.58319 27.6362 9.38312 27.8363L9.37527 27.8284Z" fill="white"/>
</mask>
<g mask="url(#mask1_4088_1596)">
<path d="M39.5957 18.0167C35.5646 23.8395 37.605 21.0281 52.4729 35.9329L54.7124 39.852L76.5477 21.9359C78.7872 18.7633 80.6908 11.8581 70.389 9.61856C57.5118 6.81917 44.6346 10.7383 39.5957 18.0167Z" fill="#53A2F6"/>
<path d="M29 42.5C27.8 34.5 17.8333 27.1667 13 24.5C10.1666 24.8333 4.82388 27 9 27C12.5 27 21.4999 36 22.9999 39.5C25.8333 44.1667 30.2 50.5 29 42.5Z" fill="#53A2F6"/>
</g>
<path d="M14.9899 48.0313C16.1553 46.8437 14.2169 43.0516 10.6602 39.5614C7.10361 36.0712 3.27562 34.2045 2.11019 35.3921C0.944767 36.5797 2.88322 40.3719 6.43985 43.8621C9.99649 47.3523 13.8245 49.2189 14.9899 48.0313Z" fill="#53A2F6"/>
<path d="M75.7167 30.6479C76.0819 29.8267 77.2067 29.7867 77.6475 30.5247L77.7113 30.6479L78.8371 33.1815C79.8202 35.3931 81.455 37.2519 83.5231 38.5093L83.871 38.7135L85.8698 39.8372C86.0287 39.9261 86.1628 40.0534 86.2599 40.2075C86.357 40.3616 86.414 40.5375 86.4258 40.7192C86.4375 40.9009 86.4035 41.0827 86.327 41.248C86.2504 41.4132 86.1338 41.5567 85.9876 41.6653L85.8709 41.7409L83.871 42.8646C81.7612 44.0513 80.0642 45.854 79.0067 48.0314L78.8371 48.3966L77.7113 50.9302C77.3461 51.7514 76.2213 51.7914 75.7805 51.0534L75.7167 50.9302L74.5909 48.3966C73.6078 46.1849 71.973 44.3262 69.905 43.0688L69.557 42.8646L67.5582 41.7409C67.3993 41.652 67.2652 41.5247 67.1681 41.3706C67.071 41.2165 67.014 41.0406 67.0023 40.8589C66.9906 40.6771 67.0245 40.4954 67.101 40.3301C67.1776 40.1649 67.2942 40.0214 67.4404 39.9128L67.5571 39.8372L69.557 38.7135C71.6668 37.5268 73.3638 35.7241 74.4213 33.5467L74.5909 33.1815L75.7167 30.6479Z" fill="#FFD540"/>
<path d="M54.8112 77.4319C55.0546 76.8845 55.8045 76.8578 56.0984 77.3498L56.1408 77.4319L56.8914 79.121C57.5468 80.5954 58.6367 81.8346 60.0154 82.6729L60.2473 82.809L61.5799 83.5581C61.6858 83.6174 61.7752 83.7023 61.84 83.805C61.9047 83.9077 61.9427 84.025 61.9505 84.1461C61.9583 84.2673 61.9357 84.3885 61.8846 84.4986C61.8336 84.6088 61.7558 84.7045 61.6584 84.7769L61.5806 84.8273L60.2473 85.5764C58.8408 86.3676 57.7094 87.5693 57.0045 89.0209L56.8914 89.2644L56.1408 90.9535C55.8974 91.5009 55.1475 91.5276 54.8537 91.0356L54.8112 90.9535L54.0606 89.2644C53.4052 87.79 52.3153 86.5508 50.9366 85.7125L50.7047 85.5764L49.3721 84.8273C49.2662 84.768 49.1768 84.6831 49.112 84.5804C49.0473 84.4777 49.0093 84.3604 49.0015 84.2393C48.9937 84.1181 49.0163 83.9969 49.0674 83.8867C49.1184 83.7766 49.1962 83.6809 49.2936 83.6085L49.3714 83.5581L50.7047 82.809C52.1112 82.0178 53.2426 80.8161 53.9475 79.3645L54.0606 79.121L54.8112 77.4319Z" fill="#FFD540"/>
<path d="M31.458 30.3318C31.6436 29.9104 32.2192 29.8915 32.4457 30.2689L32.4771 30.3318L33.0527 31.6277C33.5559 32.76 34.3926 33.7099 35.4494 34.3546L35.6287 34.4584L36.6509 35.034C36.7327 35.078 36.8019 35.1441 36.849 35.2227C36.8994 35.3014 36.9277 35.3926 36.934 35.4838C36.9403 35.5781 36.9214 35.6694 36.8836 35.7543C36.8459 35.8392 36.7861 35.9115 36.7107 35.9682L36.6509 36.0059L35.6287 36.5815C34.5499 37.1885 33.6818 38.1101 33.1408 39.2235L33.0527 39.4091L32.4771 40.7049C32.2915 41.1264 31.716 41.1453 31.4895 40.7678L31.458 40.7049L30.8825 39.4091C30.3792 38.2768 29.5426 37.3269 28.4858 36.6821L28.3065 36.5783L27.2843 36.0028C27.2025 35.9587 27.1333 35.8927 27.0861 35.814C27.0358 35.7354 27.0075 35.6442 27.0012 35.553C26.9949 35.4586 27.0138 35.3674 27.0515 35.2825C27.0893 35.1976 27.149 35.1252 27.2245 35.0686L27.2843 35.0309L28.3065 34.4553C29.3853 33.8482 30.2534 32.9267 30.7944 31.8132L30.8825 31.6277L31.458 30.3318Z" fill="#FFD540"/>
</svg>
