<svg width="100" height="100" viewBox="0 0 100 100" fill="none" xmlns="http://www.w3.org/2000/svg">
<g clip-path="url(#clip0_4043_3702)">
<path d="M8.21831 60.2246C8.21831 60.2246 0.545111 57.736 2.2468 48.9872C3.62844 41.8869 11.4156 40.2836 11.4156 40.2836L50.5497 32L88.8282 40.2852L52.6292 54.0064L50.8884 69.1576C50.8884 69.1576 10.6662 65.1079 8.21831 60.2246Z" fill="#B4DAFF"/>
<path d="M90.3034 73.5211C90.4766 73.493 90.6499 73.4665 90.8232 73.4462C91.3447 73.3837 93.5522 72.9544 95.5427 70.0928C97.8173 66.8221 100.335 59.561 94.9541 55.8938L59.5278 60.1855L89.3823 53.5365C89.3823 53.5365 94.7839 49.3837 93.1728 44.9297C91.5617 40.4756 88.828 40.2852 88.828 40.2852L55.1831 47.7211C51.7641 48.4767 48.7292 50.4937 46.8074 53.4209C45.4772 55.4473 44.5749 58.0077 45.2165 60.9458C46.8495 68.427 50.8898 69.1576 50.8898 69.1576L46.9229 74.4297L44.4734 75.7973L47.0587 78.136C47.947 78.5903 48.904 79.6768 49.7143 80L90.3049 73.5211H90.3034Z" fill="#89C2F9"/>
<path d="M94.9541 55.8938C94.9541 55.8938 75.2333 59.9732 71.9407 60.3838C68.8496 60.771 62.0241 62.3962 59.3342 61.422C58.9283 61.2752 58.6005 60.5774 58.7815 60.1871C58.8799 59.9732 59.0407 59.7062 59.2921 59.3737C60.2272 58.1388 62.174 57.9889 62.174 57.9889L88.7609 53.5755C89.1324 53.5146 89.5118 53.5224 89.8787 53.6036C90.7654 53.7987 92.5264 54.3498 94.9556 55.8938H94.9541Z" fill="#53A2F6"/>
<path d="M49.7127 80L7.1456 71.2387C7.0207 71.2121 6.89737 71.1747 6.78028 71.1231C5.88417 70.7266 2.32156 68.8266 3.46278 64.1166C3.49088 64.0026 3.52991 63.8918 3.5783 63.7856C3.82497 63.2486 4.67893 61.7311 6.9161 60.4338C7.30952 60.2058 7.77475 60.1309 8.21969 60.2261L50.2154 69.142C50.4371 69.1888 50.6666 69.1951 50.8898 69.1576L86.0413 63.4468C86.224 63.4172 86.7236 63.4078 86.9078 63.414C87.8429 63.4515 89.1075 64.0416 88.7734 64.6443C88.3581 65.3905 87.1076 66.0337 83.1656 66.819C76.7305 68.1007 52.6867 72.6984 50.9773 73.1964C49.1507 73.7272 48.8416 78.9447 49.7127 79.9984V80Z" fill="#53A2F6"/>
</g>
<path d="M37.458 12.3318C37.6436 11.9104 38.2192 11.8915 38.4457 12.2689L38.4771 12.3318L39.0527 13.6277C39.5559 14.76 40.3926 15.7099 41.4494 16.3546L41.6287 16.4584L42.6509 17.034C42.7327 17.078 42.8019 17.1441 42.849 17.2227C42.8994 17.3014 42.9277 17.3926 42.934 17.4838C42.9403 17.5781 42.9214 17.6694 42.8836 17.7543C42.8459 17.8392 42.7861 17.9115 42.7107 17.9682L42.6509 18.0059L41.6287 18.5815C40.5499 19.1885 39.6818 20.1101 39.1408 21.2235L39.0527 21.4091L38.4771 22.7049C38.2915 23.1264 37.716 23.1453 37.4895 22.7678L37.458 22.7049L36.8825 21.4091C36.3792 20.2768 35.5426 19.3269 34.4858 18.6821L34.3065 18.5783L33.2843 18.0028C33.2025 17.9587 33.1333 17.8927 33.0861 17.814C33.0358 17.7354 33.0075 17.6442 33.0012 17.553C32.9949 17.4586 33.0138 17.3674 33.0515 17.2825C33.0893 17.1976 33.149 17.1252 33.2245 17.0686L33.2843 17.0309L34.3065 16.4553C35.3853 15.8482 36.2534 14.9267 36.7944 13.8132L36.8825 13.6277L37.458 12.3318Z" fill="#FFD540"/>
<path d="M69.2318 26.389C69.4519 25.8952 70.125 25.8732 70.3892 26.3135L70.427 26.389L71.1032 27.9082C71.6945 29.2355 72.6758 30.352 73.9151 31.1069L74.1227 31.2296L75.321 31.9027C75.4154 31.9561 75.4972 32.0316 75.5538 32.126C75.6135 32.2172 75.645 32.3241 75.6544 32.4342C75.6607 32.5443 75.6418 32.6512 75.5947 32.7519C75.5475 32.8525 75.4783 32.9375 75.3902 33.0035L75.321 33.0475L74.1195 33.7206C72.852 34.4315 71.8361 35.5134 71.2007 36.8219L71.1001 37.042L70.4238 38.5612C70.2037 39.055 69.5306 39.077 69.2664 38.6367L69.2286 38.5612L68.5524 37.042C67.9611 35.7147 66.9829 34.5982 65.7405 33.8433L65.5329 33.7206L64.3346 33.0475C64.2402 32.9941 64.1584 32.9186 64.1018 32.8242C64.0421 32.733 64.0106 32.6261 64.0012 32.516C63.9949 32.4059 64.0138 32.299 64.0609 32.1983C64.1081 32.0977 64.1773 32.0128 64.2654 31.9467L64.3346 31.9027L65.5361 31.2296C66.8036 30.5187 67.8195 29.4368 68.4549 28.1283L68.5555 27.9082L69.2318 26.389Z" fill="#FFD540"/>
<path d="M23.0676 62.5996C23.4056 61.8396 24.4466 61.8026 24.8546 62.4856L24.9136 62.5996L25.9556 64.9446C26.8655 66.9915 28.3786 68.7119 30.2926 69.8756L30.6146 70.0646L32.4646 71.1046C32.6117 71.1869 32.7358 71.3048 32.8257 71.4474C32.9156 71.59 32.9683 71.7528 32.9792 71.921C32.99 72.0892 32.9586 72.2574 32.8877 72.4104C32.8169 72.5633 32.7089 72.6961 32.5736 72.7966L32.4656 72.8666L30.6146 73.9066C28.662 75.005 27.0913 76.6733 26.1126 78.6886L25.9556 79.0266L24.9136 81.3716C24.5756 82.1316 23.5346 82.1686 23.1266 81.4856L23.0676 81.3716L22.0256 79.0266C21.1158 76.9797 19.6026 75.2593 17.6886 74.0956L17.3666 73.9066L15.5166 72.8666C15.3696 72.7843 15.2454 72.6664 15.1556 72.5238C15.0657 72.3813 15.0129 72.2184 15.0021 72.0502C14.9913 71.882 15.0227 71.7138 15.0935 71.5609C15.1644 71.4079 15.2723 71.2751 15.4076 71.1746L15.5156 71.1046L17.3666 70.0646C19.3192 68.9663 20.8899 67.2979 21.8686 65.2826L22.0256 64.9446L23.0676 62.5996Z" fill="#FFD540"/>
<defs>
<clipPath id="clip0_4043_3702">
<rect width="96.1624" height="48" fill="white" transform="translate(2 32)"/>
</clipPath>
</defs>
</svg>
