<svg width="100" height="100" viewBox="0 0 100 100" fill="none" xmlns="http://www.w3.org/2000/svg">
<g clip-path="url(#clip0_4043_3706)">
<path d="M78.2612 82.3637V32.5958H21.7386V82.3637C21.7386 82.3637 21.7386 82.3637 21.7386 82.3696C21.7386 88.2391 34.3915 92.9941 49.9999 92.9941C65.6084 92.9941 78.2612 88.2332 78.2612 82.3696C78.2612 82.3696 78.2612 82.3696 78.2612 82.3637Z" fill="#E6E5F4"/>
<path d="M65.4083 21.3645C60.8394 20.4835 55.5875 19.9759 50 19.9759C44.4125 19.9759 39.1665 20.4776 34.5917 21.3645H18V31.213C18 37.4209 32.3249 42.4502 50 42.4502C67.6751 42.4502 82 37.4209 82 31.213V21.3645H65.4083Z" fill="#ACB0D5"/>
<path d="M50 32.6016C67.6731 32.6016 82 27.5706 82 21.3645C82 15.1583 67.6731 10.1273 50 10.1273C32.3269 10.1273 18 15.1583 18 21.3645C18 27.5706 32.3269 32.6016 50 32.6016Z" fill="#E6E5F4"/>
<path d="M41.4039 50.8285C38.3187 50.8285 35.8223 53.4307 35.8223 56.6396V70.9049C35.8223 74.1138 38.3246 76.716 41.4039 76.716C44.4832 76.716 46.9855 74.1138 46.9855 70.9049V56.6396C46.9855 53.4307 44.4832 50.8285 41.4039 50.8285Z" fill="#333962"/>
<path d="M58.5961 50.8285C55.5109 50.8285 53.0145 53.4307 53.0145 56.6396V70.9049C53.0145 74.1138 55.5168 76.716 58.5961 76.716C61.6813 76.716 64.1777 74.1138 64.1777 70.9049V56.6396C64.1777 53.4307 61.6754 50.8285 58.5961 50.8285Z" fill="#333962"/>
<path d="M45.8608 7.26256C44.9482 6.91832 43.9414 6.91832 43.0288 7.25672L41.9985 7.6418C41.0034 8.0152 40.344 8.95455 40.344 10.0106V18.7798C40.344 19.2816 40.6796 19.7191 41.1624 19.865C42.0632 20.1451 43.0347 20.1451 43.9355 19.865C44.4183 19.7133 44.7539 19.2757 44.7539 18.7798V12.8986L53.2088 16.1484V23.0331C53.2088 23.4824 53.4796 23.9024 53.8976 24.0775C55.5168 24.7601 57.3537 24.7601 58.9729 24.0775C59.3909 23.9024 59.6618 23.4882 59.6618 23.0331V14.1939C59.6618 13.1554 59.0141 12.2277 58.0367 11.8601L45.8608 7.26256Z" fill="#333962"/>
</g>
<defs>
<clipPath id="clip0_4043_3706">
<rect width="64" height="86" fill="white" transform="translate(18 7)"/>
</clipPath>
</defs>
</svg>
