<svg width="18" height="18" viewBox="0 0 18 18" fill="none" xmlns="http://www.w3.org/2000/svg">
<g id="ico/arrow" clip-path="url(#clip0_28_726)">
<path id="Vector" d="M6.52524 8.5L13.7393 15.9137C13.7987 15.9734 13.8456 16.0444 13.8774 16.1224C13.9092 16.2004 13.9253 16.2839 13.9246 16.3682C13.9239 16.4524 13.9065 16.5357 13.8734 16.6131C13.8403 16.6906 13.7921 16.7608 13.7318 16.8195C13.6714 16.8783 13.5999 16.9244 13.5216 16.9554C13.4433 16.9864 13.3595 17.0015 13.2753 16.9999C13.1911 16.9983 13.108 16.98 13.0309 16.9461C12.9538 16.9121 12.8842 16.8633 12.8261 16.8023L5.18047 8.94429C5.06475 8.82535 5 8.66595 5 8.5C5 8.33405 5.06475 8.17465 5.18047 8.05571L12.8261 0.197737C12.8842 0.136732 12.9538 0.0878544 13.0309 0.0539322C13.108 0.02001 13.1911 0.00171852 13.2753 0.000116348C13.3595 -0.00148773 13.4433 0.013628 13.5216 0.04459C13.5999 0.075552 13.6714 0.121744 13.7318 0.180494C13.7921 0.239244 13.8403 0.309385 13.8734 0.386858C13.9065 0.464331 13.9239 0.547598 13.9246 0.63184C13.9253 0.716082 13.9092 0.799625 13.8774 0.877638C13.8456 0.95565 13.7987 1.02658 13.7393 1.08633L6.52524 8.5Z" fill="#191919" stroke="#191919" stroke-width="0.708333"/>
</g>
<defs>
<clipPath id="clip0_28_726">
<rect width="18" height="18" fill="white" transform="matrix(1.19249e-08 -1 -1 -1.19249e-08 18 18)"/>
</clipPath>
</defs>
</svg>
