<svg width="24" height="24" viewBox="0 0 24 24" fill="none" xmlns="http://www.w3.org/2000/svg">
<g clip-path="url(#clip0_4111_7228)">
<g clip-path="url(#clip1_4111_7228)">
<path d="M16.8307 14.5232L19.4982 15.7135C19.842 15.8669 20.2387 15.8461 20.5654 15.6567L21.5275 15.2363L18.0295 13.4731C18.0295 13.4731 12.7816 14.2136 10.1416 10.7677C9.66907 10.1512 9.35943 9.4259 9.21076 8.66362C8.97781 7.46859 8.7496 5.60124 10.08 4.5795C10.08 4.5795 7.72881 5.96391 8.02993 9.35014C8.0877 9.99595 8.28371 10.6209 8.61893 11.1768C9.22212 12.1758 10.5166 13.7155 12.9578 14.2799C13.0686 14.3054 13.1794 14.332 13.2882 14.3642C13.6755 14.4806 14.9861 14.8045 16.8307 14.5232Z" fill="#89C2F9"/>
<path d="M22.0104 11.7686C22.7273 10.977 23.1023 9.93154 22.9763 8.59353C22.6922 5.57944 19.5475 3 15.4681 3C11.3887 3 8.68994 4.67702 8.68994 7.70436C8.68994 10.7317 11.543 13.814 15.6224 13.814C16.5012 13.814 17.3582 13.7467 18.1602 13.6037L21.5275 15.2353L22.0104 11.7676V11.7686Z" fill="#B4DAFF"/>
<path d="M12.7011 9.32646C13.29 9.32646 13.7674 8.84909 13.7674 8.26022C13.7674 7.67134 13.29 7.19397 12.7011 7.19397C12.1123 7.19397 11.6349 7.67134 11.6349 8.26022C11.6349 8.84909 12.1123 9.32646 12.7011 9.32646Z" fill="#43467B"/>
<path d="M15.8119 9.32646C16.4007 9.32646 16.8781 8.84909 16.8781 8.26022C16.8781 7.67134 16.4007 7.19397 15.8119 7.19397C15.223 7.19397 14.7456 7.67134 14.7456 8.26022C14.7456 8.84909 15.223 9.32646 15.8119 9.32646Z" fill="#43467B"/>
<path d="M18.9889 9.32646C19.5777 9.32646 20.0551 8.84909 20.0551 8.26022C20.0551 7.67134 19.5777 7.19397 18.9889 7.19397C18.4 7.19397 17.9226 7.67134 17.9226 8.26022C17.9226 8.84909 18.4 9.32646 18.9889 9.32646Z" fill="#43467B"/>
<path d="M7.0233 19.2825L4.31507 20.4984C3.96565 20.6556 3.56321 20.6338 3.23178 20.4406L2.25549 20.0107L5.80554 18.2087C5.80554 18.2087 11.132 18.9663 13.8119 15.4446C14.291 14.8149 14.6054 14.0735 14.7559 13.2941C14.9917 12.0726 15.2247 10.1655 13.8734 9.121C13.8734 9.121 16.2597 10.5357 15.9548 13.9958C15.8961 14.6558 15.6972 15.295 15.3572 15.8622C14.7446 16.883 13.4312 18.4559 10.9531 19.0335C10.8404 19.06 10.7277 19.0865 10.6169 19.1197C10.2239 19.239 8.89349 19.5695 7.0214 19.2825H7.0233Z" fill="#53A2F6"/>
<path d="M1.76517 16.4673C1.03698 15.6586 0.65726 14.5905 0.785096 13.2231C1.07296 10.1427 4.26507 7.50742 8.40601 7.50742C12.5469 7.50742 15.2864 9.22136 15.2864 12.315C15.2864 15.4086 12.3907 18.5581 8.24882 18.5581C7.35681 18.5581 6.48658 18.4899 5.67316 18.3432L2.25568 20.0107L1.76517 16.4673Z" fill="#89C2F9"/>
<path d="M10.1654 13.9731C10.7631 13.9731 11.2477 13.4851 11.2477 12.8832C11.2477 12.2812 10.7631 11.7932 10.1654 11.7932C9.56759 11.7932 9.08301 12.2812 9.08301 12.8832C9.08301 13.4851 9.56759 13.9731 10.1654 13.9731Z" fill="#43467B"/>
<path d="M7.00825 13.9731C7.60601 13.9731 8.09059 13.4851 8.09059 12.8832C8.09059 12.2812 7.60601 11.7932 7.00825 11.7932C6.41049 11.7932 5.9259 12.2812 5.9259 12.8832C5.9259 13.4851 6.41049 13.9731 7.00825 13.9731Z" fill="#43467B"/>
<path d="M3.78388 13.9731C4.38164 13.9731 4.86623 13.4851 4.86623 12.8832C4.86623 12.2812 4.38164 11.7932 3.78388 11.7932C3.18612 11.7932 2.70154 12.2812 2.70154 12.8832C2.70154 13.4851 3.18612 13.9731 3.78388 13.9731Z" fill="#43467B"/>
</g>
</g>
<defs>
<clipPath id="clip0_4111_7228">
<rect width="24" height="24" fill="white"/>
</clipPath>
<clipPath id="clip1_4111_7228">
<rect width="23.0004" height="18" fill="white" transform="translate(0 3)"/>
</clipPath>
</defs>
</svg>
