<svg width="24" height="24" viewBox="0 0 24 24" fill="none" xmlns="http://www.w3.org/2000/svg">
<g clip-path="url(#clip0_4111_7425)">
<g clip-path="url(#clip1_4111_7425)">
<path d="M1.99987 20.9519C1.99987 20.9519 1.9333 23.5358 4.04475 22.8993C6.15619 22.2629 10.8004 17.7315 10.4254 16.7201C10.0503 15.7086 8.92762 17.1251 8.92762 17.1251L1.99987 20.9519Z" fill="#333667"/>
<path d="M7.17671 15.0226C7.17671 15.0226 1.75482 18.1309 2.0089 21.3139C2.0089 21.3139 2.0089 22.5121 3.76885 21.7637C5.52879 21.0152 8.18819 18.8055 8.86197 17.1203L7.17671 15.0234V15.0226Z" fill="#43467B"/>
<path d="M7.01672 15.8522C7.01672 15.8522 8.38295 17.419 10.4433 17.7567C12.5036 18.0944 15.0688 18.1747 18.1398 15.2158C21.2107 12.2569 21.438 8.84331 21.3974 7.50143C21.3569 6.15955 21.0606 4.76735 19.2251 3.38245L7.01672 15.8522Z" fill="#53A2F6"/>
<path d="M17.6437 13.6588C14.347 17.1957 9.47554 18.0554 7.01015 15.9156C4.54558 13.7757 4.93442 9.07873 8.23107 5.5426C11.5277 2.00567 16.4837 0.968209 18.9482 3.10807C21.4128 5.24793 20.9395 10.1219 17.6429 13.6588H17.6437Z" fill="#89C2F9"/>
<path d="M16.4612 12.7263C19.1647 9.75936 19.7377 5.8793 17.7411 4.05995C15.7444 2.2406 11.9342 3.17092 9.2307 6.13787C6.5272 9.10482 5.95416 12.9849 7.9508 14.8042C9.94744 16.6236 13.7577 15.6933 16.4612 12.7263Z" fill="#B4DAFF"/>
<path d="M4.74494 10.2042C4.86012 9.94526 5.21381 9.93305 5.35338 10.1649L5.37371 10.2042L5.72875 11.0028C6.03771 11.6997 6.55266 12.2855 7.20446 12.6814L7.31423 12.7451L7.943 13.099C7.99314 13.1275 8.03515 13.1668 8.06632 13.2156C8.09748 13.2644 8.1151 13.32 8.11917 13.3769C8.12323 13.4339 8.11239 13.4908 8.088 13.5437C8.0636 13.5952 8.02702 13.6413 7.98094 13.6752L7.94436 13.6996L7.31423 14.0535C6.65022 14.4277 6.11495 14.9959 5.78295 15.6819L5.7301 15.7972L5.37506 16.5958C5.25988 16.8547 4.9062 16.8669 4.76662 16.6351L4.74629 16.5958L4.39125 15.7972C4.08229 15.1003 3.56734 14.5145 2.91554 14.1186L2.80577 14.0549L2.177 13.701C2.12686 13.6725 2.08485 13.6332 2.05368 13.5844C2.02252 13.5356 2.0049 13.48 2.00083 13.423C1.99677 13.3661 2.00761 13.3092 2.032 13.2563C2.0564 13.2048 2.09298 13.1587 2.13906 13.1248L2.17564 13.1004L2.80577 12.7465C3.46978 12.3723 4.00505 11.8041 4.33705 11.1181L4.3899 11.0028L4.74494 10.2042Z" fill="#FFD540"/>
</g>
<path d="M21.9376 3.14416C22.0189 2.96136 22.2686 2.95274 22.3671 3.1164L22.3814 3.14416L22.6321 3.70788C22.8502 4.19982 23.2136 4.61328 23.6737 4.89275L23.7512 4.93773L24.1951 5.18753C24.2305 5.20763 24.2601 5.23538 24.2821 5.26984C24.3041 5.30429 24.3165 5.34353 24.3194 5.38373C24.3223 5.42393 24.3146 5.46412 24.2974 5.50145C24.2802 5.53782 24.2544 5.57036 24.2218 5.59429L24.196 5.61152L23.7512 5.86131C23.2825 6.12547 22.9047 6.52648 22.6703 7.01077L22.633 7.09212L22.3824 7.65584C22.3011 7.83864 22.0514 7.84726 21.9529 7.6836L21.9386 7.65584L21.6879 7.09212C21.4698 6.60018 21.1064 6.18672 20.6463 5.90725L20.5688 5.86227L20.1249 5.61247C20.0895 5.59237 20.0599 5.56462 20.0379 5.53016C20.0159 5.49571 20.0035 5.45647 20.0006 5.41627C19.9977 5.37607 20.0054 5.33588 20.0226 5.29855C20.0398 5.26218 20.0656 5.22964 20.0982 5.20571L20.124 5.18849L20.5688 4.93869C21.0375 4.67453 21.4153 4.27351 21.6497 3.78923L21.687 3.70788L21.9376 3.14416Z" fill="#FFD540"/>
<path d="M20.3456 15.0901C20.402 14.9758 20.5754 14.9705 20.6438 15.0728L20.6538 15.0901L20.8278 15.4424C20.9793 15.7499 21.2317 16.0083 21.5512 16.183L21.605 16.2111L21.9132 16.3672C21.9378 16.3798 21.9584 16.3971 21.9737 16.4186C21.989 16.4402 21.9976 16.4647 21.9996 16.4898C22.0016 16.515 21.9963 16.5401 21.9843 16.5634C21.9724 16.5861 21.9544 16.6065 21.9318 16.6214L21.9139 16.6322L21.605 16.7883C21.2795 16.9534 21.0171 17.2041 20.8544 17.5067L20.8285 17.5576L20.6544 17.9099C20.598 18.0242 20.4246 18.0295 20.3562 17.9272L20.3462 17.9099L20.1722 17.5576C20.0207 17.2501 19.7683 16.9917 19.4488 16.817L19.395 16.7889L19.0868 16.6328C19.0622 16.6202 19.0416 16.6029 19.0263 16.5814C19.011 16.5598 19.0024 16.5353 19.0004 16.5102C18.9984 16.485 19.0037 16.4599 19.0157 16.4366C19.0276 16.4139 19.0456 16.3935 19.0682 16.3786L19.0861 16.3678L19.395 16.2117C19.7205 16.0466 19.9829 15.7959 20.1456 15.4933L20.1715 15.4424L20.3456 15.0901Z" fill="#FFD540"/>
</g>
<defs>
<clipPath id="clip0_4111_7425">
<rect width="24" height="24" fill="white"/>
</clipPath>
<clipPath id="clip1_4111_7425">
<rect width="19.4008" height="21" fill="white" transform="translate(2 2)"/>
</clipPath>
</defs>
</svg>
