<svg width="24" height="24" viewBox="0 0 24 24" fill="none" xmlns="http://www.w3.org/2000/svg">
<g clip-path="url(#clip0_4111_7197)">
<path d="M3.73267 4.07835L18.6939 3.00861C19.5506 2.94834 20.39 3.26044 20.997 3.86741L21.4511 4.32157C21.8041 4.67456 22 5.15024 22 5.64959V17.7116C22 19.0956 20.9367 20.2492 19.557 20.359L4.71847 21.7861C4.2557 21.8226 4.16961 21.6246 3.5777 21.0865L2.7189 20.2277C2.25829 19.7671 2 19.1429 2 18.4907V5.94016C2 4.96298 2.75764 4.14937 3.73267 4.07835Z" fill="#F9CBAE"/>
<path d="M20.2888 20.4752L4.71841 21.7839C4.42354 21.8097 4.16956 21.5687 4.16956 21.263V7.84932C4.16956 6.7516 5.00684 5.84114 6.09164 5.7572L21.195 4.60782C21.6297 4.57554 21.9999 4.92853 21.9999 5.37623V18.5639C21.9999 19.5605 21.2552 20.3913 20.2888 20.4731V20.4752Z" fill="#FDE5CE"/>
<path d="M20.0542 18.8524L6.59319 20.1093C6.20145 20.1459 5.86353 19.8381 5.86353 19.4443V8.38313C5.86353 8.03444 6.13042 7.74602 6.47696 7.71804L19.938 6.61817C20.3276 6.58589 20.6612 6.89368 20.6612 7.28326V18.1894C20.6612 18.5338 20.3986 18.8222 20.0564 18.8545L20.0542 18.8524Z" fill="#FAF0F2"/>
<path d="M13.4335 12.1455L7.28624 12.6836C7.14849 12.6965 7.02795 12.5867 7.02795 12.4468V9.25053C7.02795 9.12785 7.12266 9.02453 7.24535 9.01377L13.3926 8.47567C13.5303 8.46276 13.6509 8.57253 13.6509 8.71244V11.9087C13.6509 12.0314 13.5561 12.1347 13.4335 12.1455Z" fill="#89C2F9"/>
<path d="M14.4761 10.6136C14.7054 10.1382 14.5215 9.5745 14.0654 9.3545C13.6093 9.1345 13.0537 9.34153 12.8244 9.81691C12.5951 10.2923 12.7789 10.856 13.235 11.076C13.6912 11.296 14.2468 11.089 14.4761 10.6136Z" fill="#FFD540"/>
<path d="M11.8752 11.6634L7.88466 11.9862C7.86529 11.9862 7.85022 11.9733 7.85022 11.9539V9.61213C7.85022 9.59491 7.86313 9.582 7.88035 9.57985L11.8709 9.25699C11.8903 9.25699 11.9053 9.2699 11.9053 9.28927V11.6311C11.9053 11.6483 11.8924 11.6612 11.8752 11.6634Z" fill="#FAF0F2"/>
<path d="M12.6113 16.9733L8.57773 18.6134C8.33882 18.7103 8.06546 18.594 7.97291 18.353L6.84721 15.4731C6.75251 15.232 6.87519 14.9587 7.11841 14.8704L11.1563 13.3896C11.3888 13.3035 11.6492 13.4176 11.7439 13.6479L12.8674 16.3663C12.9643 16.6031 12.8524 16.8743 12.6135 16.9711L12.6113 16.9733Z" fill="#FFD540"/>
<path d="M9.03612 15.8304L8.28924 15.9272C8.08261 15.9531 7.89966 15.7916 7.89966 15.5829V13.8179C7.89966 13.6393 8.03526 13.4907 8.21175 13.4735L8.95863 13.4003C9.16311 13.381 9.33745 13.5402 9.33745 13.7447V15.486C9.33745 15.6603 9.20831 15.8067 9.03612 15.8304Z" fill="#3B406E"/>
<path d="M19.1804 17.83L14.5226 18.3745C14.1653 18.4154 13.8511 18.1162 13.8511 17.7309V13.4477C13.8511 13.1098 14.0921 12.83 14.4064 12.802L19.0642 12.3952C19.4172 12.365 19.7185 12.6621 19.7185 13.0409V17.1864C19.7185 17.5157 19.486 17.7934 19.1782 17.83H19.1804Z" fill="#89C6A1"/>
<path d="M18.427 17.0616L15.235 17.4339C14.9897 17.4619 14.7744 17.2574 14.7744 16.9927V14.0568C14.7744 13.8265 14.9401 13.6328 15.1554 13.6156L18.3474 13.3358C18.5884 13.3143 18.7951 13.5187 18.7951 13.777V16.6182C18.7951 16.8442 18.6358 17.0336 18.4249 17.0594L18.427 17.0616Z" fill="#FAF0F2"/>
<path d="M17.1506 14.0654L16.5006 14.1623C16.3198 14.1881 16.1605 14.0267 16.1605 13.8179V12.053C16.1605 11.8743 16.2789 11.7258 16.4317 11.7086L17.0817 11.6354C17.2582 11.616 17.4132 11.7753 17.4132 11.9798V13.7211C17.4132 13.8954 17.3013 14.0418 17.1506 14.0654Z" fill="#3B406E"/>
</g>
<defs>
<clipPath id="clip0_4111_7197">
<rect width="20" height="18.7904" fill="white" transform="translate(2 3)"/>
</clipPath>
</defs>
</svg>
