<svg width="24" height="24" viewBox="0 0 24 24" fill="none" xmlns="http://www.w3.org/2000/svg">
<g clip-path="url(#clip0_4111_7442)">
<g clip-path="url(#clip1_4111_7442)">
<path d="M4.03485 22.9715H18.2595C18.2595 22.9715 17.9958 16.0346 14.2201 14.7177C10.4444 13.4008 8.39101 14.922 7.79314 15.3749C6.4105 16.4226 4.9574 17.8765 4.03406 22.9715H4.03485Z" fill="#EE90A3"/>
<path d="M16.7066 8.79358C16.7066 8.79358 18.733 8.3335 19.1963 7.65485C19.6595 6.97621 16.298 7.47826 16.298 7.47826L16.7066 8.79358Z" fill="#C9C9E3"/>
<path d="M7.31331 12.4323C7.31331 12.4323 8.62467 15.5927 12.2563 15.3575C15.8878 15.1223 16.8627 11.6927 16.8627 11.6927C16.8627 11.6927 17.6363 8.70014 16.0557 7.15359C14.4751 5.60704 5.19502 6.24609 7.31331 12.4323Z" fill="#FDE5CE"/>
<mask id="mask0_4111_7442" style="mask-type:luminance" maskUnits="userSpaceOnUse" x="7" y="6" width="11" height="10">
<path d="M7.31331 12.4323C7.31331 12.4323 8.62467 15.5927 12.2563 15.3575C15.8878 15.1223 16.8627 11.6927 16.8627 11.6927C16.8627 11.6927 17.6363 8.70014 16.0557 7.15359C14.4751 5.60704 5.19502 6.24609 7.31331 12.4323Z" fill="white"/>
</mask>
<g mask="url(#mask0_4111_7442)">
<path d="M8.25158 9.98376C8.25158 9.98376 9.17967 14.3558 14.3926 14.8143L13.6063 16.1296L8.67682 16.3996L4.92725 11.8209L8.25158 9.98297V9.98376Z" fill="#F9CBAE"/>
</g>
<path d="M6.97514 8.65342L4.39835 8.99235C4.39835 8.99235 3.86462 6.79329 4.39835 5.15963C4.93208 3.52597 6.06289 2.39516 8.92159 2.01822C8.92159 2.01822 5.43492 3.70097 6.97514 8.65263V8.65342Z" fill="#E97282"/>
<path d="M7.16443 8.67005L12.6934 8.80942C12.6934 8.80942 14.955 7.25337 19.1963 7.65485C19.1963 7.65485 19.9185 7.17655 18.882 6.64203C17.8454 6.10751 14.9241 5.41699 14.9241 5.41699C14.9241 5.41699 10.5577 5.0448 7.16522 8.67084L7.16443 8.67005Z" fill="#E6E5F4"/>
<path d="M6.57601 8.19885C6.57601 8.19885 7.07806 8.24558 7.26653 8.79277C7.26653 8.79277 13.8946 5.6965 14.9945 5.44547C14.9945 5.44547 13.8392 2.46086 10.8039 2.11559C10.8039 2.11559 8.92236 1.85427 8.71172 2.11559C8.71172 2.11559 6.00981 3.27808 6.41842 7.23592L6.57601 8.19885Z" fill="#EE90A3"/>
<path d="M6.09929 12.7736C7.25869 12.7736 8.19858 11.7153 8.19858 10.4098C8.19858 9.10435 7.25869 8.04605 6.09929 8.04605C4.93988 8.04605 4 9.10435 4 10.4098C4 11.7153 4.93988 12.7736 6.09929 12.7736Z" fill="#FDE5CE"/>
<path d="M5.9386 9.07708C6.30683 8.97413 6.75424 9.42392 6.93717 10.082C7.12088 10.74 6.94033 11.5272 6.71623 11.7584L5.9386 9.07708Z" fill="#F9CBAE"/>
<path d="M8.19788 22.9968C8.19788 22.9968 8.48058 20.5467 8.98343 19.9813C9.48627 19.4159 8.98343 23.0008 8.98343 23.0008L8.19788 22.9968Z" fill="#E97282"/>
</g>
</g>
<defs>
<clipPath id="clip0_4111_7442">
<rect width="24" height="24" fill="white"/>
</clipPath>
<clipPath id="clip1_4111_7442">
<rect width="15.441" height="21" fill="white" transform="translate(4 2)"/>
</clipPath>
</defs>
</svg>
