<svg width="24" height="24" viewBox="0 0 24 24" fill="none" xmlns="http://www.w3.org/2000/svg">
<g id="mage:trash-fill">
<path id="Vector" d="M20.725 5.27586H16.035V4.38586C16.0313 3.75568 15.7799 3.15224 15.335 2.70586C15.1134 2.48349 14.85 2.30715 14.5599 2.18702C14.2699 2.06688 13.9589 2.00531 13.645 2.00586H10.385C10.0711 2.00531 9.76011 2.06688 9.47007 2.18702C9.18002 2.30715 8.91661 2.48349 8.695 2.70586C8.25381 3.15386 8.00605 3.7571 8.005 4.38586V5.27586H3.315C3.11609 5.27586 2.92532 5.35488 2.78467 5.49553C2.64402 5.63618 2.565 5.82695 2.565 6.02586C2.565 6.22478 2.64402 6.41554 2.78467 6.55619C2.92532 6.69685 3.11609 6.77586 3.315 6.77586H4.735V18.5359C4.73092 18.9916 4.8172 19.4437 4.98884 19.8659C5.16048 20.2882 5.41408 20.6722 5.735 20.9959C6.38933 21.637 7.26894 21.996 8.185 21.9959H15.805C16.7211 21.996 17.6007 21.637 18.255 20.9959C18.5759 20.6722 18.8295 20.2882 19.0012 19.8659C19.1728 19.4437 19.2591 18.9916 19.255 18.5359V6.77586H20.685C20.8839 6.77586 21.0747 6.69685 21.2153 6.55619C21.356 6.41554 21.435 6.22478 21.435 6.02586C21.435 5.82695 21.356 5.63618 21.2153 5.49553C21.0747 5.35488 20.8839 5.27586 20.685 5.27586H20.725ZM9.525 4.38586C9.52504 4.27044 9.54806 4.15618 9.59269 4.04973C9.63733 3.94329 9.7027 3.84679 9.785 3.76586C9.95032 3.60236 10.1725 3.50919 10.405 3.50586H13.665C13.782 3.50513 13.898 3.52775 14.0062 3.5724C14.1144 3.61704 14.2126 3.68281 14.295 3.76586C14.4585 3.93118 14.5517 4.15337 14.555 4.38586V5.27586H9.555L9.525 4.38586ZM10.855 16.9959C10.855 17.2611 10.7496 17.5154 10.5621 17.703C10.3746 17.8905 10.1202 17.9959 9.855 17.9959C9.58979 17.9959 9.33543 17.8905 9.1479 17.703C8.96036 17.5154 8.855 17.2611 8.855 16.9959V11.5659C8.855 11.3006 8.96036 11.0463 9.1479 10.8588C9.33543 10.6712 9.58979 10.5659 9.855 10.5659C10.1202 10.5659 10.3746 10.6712 10.5621 10.8588C10.7496 11.0463 10.855 11.3006 10.855 11.5659V16.9959ZM15.215 16.9959C15.215 17.2611 15.1096 17.5154 14.9221 17.703C14.7346 17.8905 14.4802 17.9959 14.215 17.9959C13.9498 17.9959 13.6954 17.8905 13.5079 17.703C13.3204 17.5154 13.215 17.2611 13.215 16.9959V11.5659C13.215 11.3006 13.3204 11.0463 13.5079 10.8588C13.6954 10.6712 13.9498 10.5659 14.215 10.5659C14.4802 10.5659 14.7346 10.6712 14.9221 10.8588C15.1096 11.0463 15.215 11.3006 15.215 11.5659V16.9959Z" fill="white"/>
</g>
</svg>
