<svg width="48" height="48" viewBox="0 0 48 48" fill="none" xmlns="http://www.w3.org/2000/svg">
<rect width="48" height="48" rx="8" fill="#EFEFEF"/>
<path d="M13.3934 32.6772C11.576 30.8598 10.6667 29.9505 10.6667 28.8212C10.6667 27.6905 11.576 26.7812 13.3934 24.9638L24.964 13.3932C26.7827 11.5758 27.6907 10.6665 28.8214 10.6665C29.952 10.6665 30.86 11.5758 32.6774 13.3932L34.6067 15.3225C36.424 17.1398 37.3334 18.0492 37.3334 19.1785C37.3334 20.3078 36.424 21.2185 34.6067 23.0358L23.036 34.6065C21.2174 36.4238 20.3067 37.3332 19.1787 37.3332C18.0507 37.3332 17.14 36.4238 15.3227 34.6065L13.3934 32.6772Z" stroke="#545454" stroke-width="2"/>
<path d="M19.2854 19.285L21.1734 21.173M24.9427 13.629L26.8281 15.5144M13.6294 24.9424L15.5147 26.8277M16.4574 22.1144L19.2867 24.9424M22.1147 16.457L24.9427 19.285" stroke="#545454" stroke-width="2" stroke-linecap="round"/>
</svg>
