<svg width="48" height="48" viewBox="0 0 48 48" fill="none" xmlns="http://www.w3.org/2000/svg">
<rect width="48" height="48" rx="8" fill="#FFF7EF"/>
<path d="M33.7861 27.6429H27.5718V25.5714H33.7861V27.6429ZM37.929 35.9286H31.7147V33.8571H37.929V35.9286ZM35.8576 31.7857H29.6433V29.7143H35.8576V31.7857Z" fill="#FF7021" stroke="#FF7021" stroke-width="0.2"/>
<path d="M24.4678 27.6429C24.46 26.769 24.2267 25.912 23.7905 25.1548C23.3543 24.3976 22.7299 23.7659 21.9779 23.3208L29.6433 10.0357L27.8515 9L20.0039 22.5948C19.0407 22.3797 18.0391 22.4095 17.0905 22.6815C16.1418 22.9534 15.2765 23.4588 14.5736 24.1515C10.6959 27.8914 10.9963 36.6349 11.0108 37.0057C11.0215 37.2732 11.1353 37.5261 11.3284 37.7114C11.5215 37.8968 11.7788 38.0002 12.0465 38H27.5729C27.7902 38 28.0021 37.9316 28.1785 37.8045C28.3548 37.6774 28.4867 37.498 28.5554 37.2918C28.6242 37.0856 28.6263 36.863 28.5615 36.6555C28.4967 36.448 28.3682 36.2661 28.1943 36.1357C24.5279 33.3849 24.4678 27.6988 24.4678 27.6429ZM19.2136 24.5326C20.0426 24.5417 20.8361 24.8701 21.4291 25.4494C22.0221 26.0287 22.3689 26.8143 22.3974 27.6429C22.3974 27.6822 22.3995 27.8583 22.415 28.1286L16.3043 25.4109C16.7068 25.079 17.1713 24.8304 17.6708 24.6796C18.1702 24.5288 18.6947 24.4789 19.2136 24.5326ZM22.8593 35.9286C22.0315 35.0856 21.5038 33.9938 21.3575 32.8214H19.2861C19.3603 33.9237 19.7046 34.9908 20.2887 35.9286H17.9863C17.5602 34.5845 17.301 33.1931 17.2147 31.7857H15.1433C15.2096 33.1889 15.4408 34.5794 15.832 35.9286H13.0718C13.1039 34.027 13.3722 29.8261 14.9392 27.0701L22.7413 30.5397C23.1153 32.4864 23.9146 34.3265 25.082 35.9286H22.8593Z" fill="#FF7021" stroke="#FFF7EF" stroke-width="0.2"/>
</svg>
