<svg width="48" height="48" viewBox="0 0 48 48" fill="none" xmlns="http://www.w3.org/2000/svg">
<rect width="48" height="48" rx="8" fill="#FAF3FF"/>
<path d="M35.5466 34.6668L26.4933 13.0802C26 11.9602 25.24 11.0535 24.2133 10.3602C23.2 9.68016 22.0666 9.3335 20.8133 9.3335C19.6933 9.3335 18.6666 9.6135 17.7333 10.1735C16.3333 11.0135 16.0533 11.4935 15.5066 12.4268C14.96 13.3602 14.6666 14.4002 14.6666 15.5202L14.7066 20.0002H10.7066V27.2668C11.5333 26.8935 12.4133 26.7068 13.3333 26.7068V22.7068H20C20.76 22.7068 21.3866 22.9735 21.9066 23.4935C22.4266 24.0002 22.6666 24.6268 22.6666 25.3335V34.7068H19.88C19.6741 35.6686 19.2448 36.5684 18.6266 37.3335H25.3333V25.3335C25.3333 24.3735 25.0666 23.4935 24.6 22.6668C24.1333 21.8402 23.48 21.2135 22.6666 20.7468C21.8933 20.2668 21 20.0002 20 20.0002H17.3333V15.5202C17.3333 14.5602 17.6666 13.7468 18.3466 13.0535C19.0266 12.3602 19.8533 12.0002 20.8133 12.0002C21.52 12.0002 22.1733 12.2135 22.7466 12.6135C23.32 13.0135 23.7466 13.5202 24 14.1468L32.6133 34.6668L29.3333 34.7068V37.3335H38.6666V34.7068L35.5466 34.6668ZM13.3333 32.0002C14.0666 32.0002 14.6666 32.6002 14.6666 33.3335C14.6666 34.0668 14.0666 34.6668 13.3333 34.6668C12.6 34.6668 12 34.0668 12 33.3335C12 32.6002 12.6 32.0002 13.3333 32.0002ZM13.3333 29.3335C11.12 29.3335 9.33331 31.1202 9.33331 33.3335C9.33331 35.5468 11.12 37.3335 13.3333 37.3335C15.5466 37.3335 17.3333 35.5468 17.3333 33.3335C17.3333 31.1202 15.5466 29.3335 13.3333 29.3335Z" fill="#9C1EFF" stroke="#FAF3FF" stroke-width="0.9"/>
</svg>
