<svg width="48" height="48" viewBox="0 0 48 48" fill="none" xmlns="http://www.w3.org/2000/svg">
<rect width="48" height="48" rx="8" fill="#938383"/>
<path d="M8.86133 29C8.55664 29 8.47754 28.8066 8.62402 28.4199L13.001 16.9326C13.1357 16.5752 13.3291 16.3965 13.5811 16.3965H14.8115C15.0635 16.3965 15.2568 16.5752 15.3916 16.9326L19.7686 28.4199C19.915 28.8066 19.8359 29 19.5312 29H18.6348C18.3242 29 18.1133 28.8564 18.002 28.5693L16.9033 25.6602H11.4893L10.3906 28.5693C10.2793 28.8564 10.0684 29 9.75781 29H8.86133ZM12.043 24.2188H16.3496L15.0049 20.7031C14.8818 20.375 14.7588 20.0117 14.6357 19.6133C14.5186 19.2148 14.3779 18.6494 14.2139 17.917H14.1787C14.0146 18.6494 13.8711 19.2148 13.748 19.6133C13.6309 20.0117 13.5107 20.375 13.3877 20.7031L12.043 24.2188ZM20.3135 32.4365C20.1143 32.3545 20.0645 32.1904 20.1641 31.9443L26.4482 16.3789C26.5479 16.1328 26.6973 16.0508 26.8965 16.1328L27.292 16.291C27.4795 16.3672 27.5234 16.5283 27.4238 16.7744L21.1396 32.3398C21.04 32.5859 20.8965 32.6709 20.709 32.5947L20.3135 32.4365ZM28.7949 28.0508C28.4844 27.7695 28.4023 27.5234 28.5488 27.3125L29.0059 26.6533C29.1641 26.4248 29.4189 26.4424 29.7705 26.7061C30.2334 27.0518 30.7139 27.3359 31.2119 27.5586C31.7158 27.7812 32.3252 27.8926 33.04 27.8926C33.5674 27.8926 34.0127 27.8135 34.376 27.6553C34.7393 27.4971 35.0293 27.2715 35.2461 26.9785C35.4688 26.6797 35.5801 26.3193 35.5801 25.8975C35.5801 25.5928 35.5332 25.3115 35.4395 25.0537C35.3516 24.79 35.208 24.5703 35.0088 24.3945C34.8096 24.2188 34.6016 24.0811 34.3848 23.9814C34.0273 23.8174 33.4912 23.627 32.7764 23.4102C32.0674 23.1934 31.4463 22.959 30.9131 22.707C30.3857 22.4551 29.9639 22.1504 29.6475 21.793C29.3369 21.4355 29.1289 21.0693 29.0234 20.6943C28.9238 20.3135 28.874 19.8799 28.874 19.3936C28.874 18.6494 29.0908 18.0078 29.5244 17.4688C29.958 16.9297 30.4883 16.5723 31.1152 16.3965C31.748 16.2207 32.3896 16.1328 33.04 16.1328C33.7842 16.1328 34.4316 16.2295 34.9824 16.4229C35.5332 16.6162 36.0254 16.8682 36.459 17.1787C36.7637 17.3955 36.834 17.624 36.6699 17.8643L36.2217 18.5059C36.0869 18.6992 35.8232 18.6582 35.4307 18.3828C35.1318 18.1719 34.7656 17.9756 34.332 17.7939C33.9043 17.6064 33.4795 17.5127 33.0576 17.5127C32.5186 17.5127 32.0703 17.5771 31.7129 17.7061C31.3555 17.8291 31.0742 18.04 30.8691 18.3389C30.6641 18.6377 30.5615 18.9834 30.5615 19.376C30.5615 19.6221 30.585 19.8506 30.6318 20.0615C30.6787 20.2666 30.7988 20.4775 30.9922 20.6943C31.1855 20.9111 31.4199 21.0781 31.6953 21.1953C32.0645 21.3535 32.6357 21.541 33.4092 21.7578C34.1885 21.9688 34.8682 22.2295 35.4482 22.54C35.9873 22.8271 36.374 23.1289 36.6084 23.4453C36.8486 23.7559 37.0332 24.0957 37.1621 24.4648C37.2969 24.8281 37.3643 25.2383 37.3643 25.6953C37.3643 26.5273 37.1504 27.2217 36.7227 27.7783C36.2949 28.335 35.7881 28.7217 35.2021 28.9385C34.6162 29.1553 33.8809 29.2637 32.9961 29.2637C31.9355 29.2637 31.0566 29.1406 30.3594 28.8945C29.6621 28.6484 29.1406 28.3672 28.7949 28.0508Z" fill="white"/>
</svg>
