<svg width="48" height="48" viewBox="0 0 48 48" fill="none" xmlns="http://www.w3.org/2000/svg">
<rect width="48" height="48" rx="8" fill="#F5FFF4"/>
<path d="M37.3334 22.6668V12.8002C37.3334 12.588 37.2491 12.3845 37.099 12.2345C36.949 12.0845 36.7455 12.0002 36.5334 12.0002H11.4667C11.2545 12.0002 11.051 12.0845 10.901 12.2345C10.751 12.3845 10.6667 12.588 10.6667 12.8002V22.6668M37.3334 22.6668H10.6667M37.3334 22.6668L36.28 26.1122C36.1133 26.6584 35.7756 27.1366 35.3166 27.4765C34.8577 27.8164 34.3018 27.9999 33.7307 28.0002H32M10.6667 22.6668L11.72 26.1122C11.8868 26.6584 12.2245 27.1366 12.6834 27.4765C13.1423 27.8164 13.6983 27.9999 14.2694 28.0002H16M32 17.3335H33.3334M20.6667 27.3335C20.6667 27.3335 20.6667 36.6668 16 36.6668M27.3334 27.3335C27.3334 27.3335 27.3334 36.6668 32 36.6668M24 27.3335V36.6668" stroke="#2BCA1D" stroke-width="2" stroke-linecap="round" stroke-linejoin="round"/>
</svg>
