<svg width="48" height="48" viewBox="0 0 48 48" fill="none" xmlns="http://www.w3.org/2000/svg">
<rect width="48" height="48" rx="8" fill="#FFF8DD"/>
<path d="M12 14.6664C11.8242 14.8411 11.6847 15.0489 11.5896 15.2777C11.4944 15.5065 11.4454 15.7519 11.4454 15.9998C11.4454 16.2476 11.4944 16.493 11.5896 16.7218C11.6847 16.9506 11.8242 17.1584 12 17.3331L13.3333 18.6664C13.5091 18.8411 13.6486 19.0489 13.7438 19.2777C13.839 19.5065 13.888 19.7519 13.888 19.9998C13.888 20.2476 13.839 20.493 13.7438 20.7218C13.6486 20.9506 13.5091 21.1584 13.3333 21.3331L12 22.6664C11.8242 22.8411 11.6847 23.0489 11.5896 23.2777C11.4944 23.5065 11.4454 23.7519 11.4454 23.9998C11.4454 24.2476 11.4944 24.493 11.5896 24.7218C11.6847 24.9506 11.8242 25.1584 12 25.3331L13.3333 26.6664C13.5091 26.8411 13.6486 27.0489 13.7438 27.2777C13.839 27.5065 13.888 27.7519 13.888 27.9998C13.888 28.2476 13.839 28.493 13.7438 28.7218C13.6486 28.9506 13.5091 29.1584 13.3333 29.3331L12 30.6664C11.8242 30.8411 11.6847 31.0489 11.5896 31.2777C11.4944 31.5065 11.4454 31.7519 11.4454 31.9998C11.4454 32.2476 11.4944 32.493 11.5896 32.7218C11.6847 32.9506 11.8242 33.1584 12 33.3331L14.6667 35.9998C14.8414 36.1755 15.0491 36.315 15.278 36.4102C15.5068 36.5054 15.7522 36.5544 16 36.5544C16.2478 36.5544 16.4932 36.5054 16.722 36.4102C16.9509 36.315 17.1586 36.1755 17.3333 35.9998L18.6667 34.6664C18.8414 34.4907 19.0491 34.3512 19.278 34.256C19.5068 34.1608 19.7522 34.1118 20 34.1118C20.2478 34.1118 20.4932 34.1608 20.722 34.256C20.9509 34.3512 21.1586 34.4907 21.3333 34.6664L22.6667 35.9998C22.8414 36.1755 23.0491 36.315 23.278 36.4102C23.5068 36.5054 23.7522 36.5544 24 36.5544C24.2478 36.5544 24.4932 36.5054 24.722 36.4102C24.9509 36.315 25.1586 36.1755 25.3333 35.9998L26.6667 34.6664C26.8414 34.4907 27.0491 34.3512 27.278 34.256C27.5068 34.1608 27.7522 34.1118 28 34.1118C28.2478 34.1118 28.4932 34.1608 28.722 34.256C28.9509 34.3512 29.1586 34.4907 29.3333 34.6664L30.6667 35.9998C30.8414 36.1755 31.0491 36.315 31.278 36.4102C31.5068 36.5054 31.7522 36.5544 32 36.5544C32.2478 36.5544 32.4932 36.5054 32.722 36.4102C32.9509 36.315 33.1586 36.1755 33.3333 35.9998L36 33.3331C36.1758 33.1584 36.3153 32.9506 36.4104 32.7218C36.5056 32.493 36.5546 32.2476 36.5546 31.9998C36.5546 31.7519 36.5056 31.5065 36.4104 31.2777C36.3153 31.0489 36.1758 30.8411 36 30.6664L34.6667 29.3331C34.4909 29.1584 34.3514 28.9506 34.2562 28.7218C34.161 28.493 34.112 28.2476 34.112 27.9998C34.112 27.7519 34.161 27.5065 34.2562 27.2777C34.3514 27.0489 34.4909 26.8411 34.6667 26.6664L36 25.3331C36.1758 25.1584 36.3153 24.9506 36.4104 24.7218C36.5056 24.493 36.5546 24.2476 36.5546 23.9998C36.5546 23.7519 36.5056 23.5065 36.4104 23.2777C36.3153 23.0489 36.1758 22.8411 36 22.6664L34.6667 21.3331C34.4909 21.1584 34.3514 20.9506 34.2562 20.7218C34.161 20.493 34.112 20.2476 34.112 19.9998C34.112 19.7519 34.161 19.5065 34.2562 19.2777C34.3514 19.0489 34.4909 18.8411 34.6667 18.6664L36 17.3331C36.1758 17.1584 36.3153 16.9506 36.4104 16.7218C36.5056 16.493 36.5546 16.2476 36.5546 15.9998C36.5546 15.7519 36.5056 15.5065 36.4104 15.2777C36.3153 15.0489 36.1758 14.8411 36 14.6664L33.3333 11.9998C33.1586 11.824 32.9509 11.6845 32.722 11.5893C32.4932 11.4941 32.2478 11.4451 32 11.4451C31.7522 11.4451 31.5068 11.4941 31.278 11.5893C31.0491 11.6845 30.8414 11.824 30.6667 11.9998L29.3333 13.3331C29.1586 13.5089 28.9509 13.6483 28.722 13.7435C28.4932 13.8387 28.2478 13.8877 28 13.8877C27.7522 13.8877 27.5068 13.8387 27.278 13.7435C27.0491 13.6483 26.8414 13.5089 26.6667 13.3331L25.3333 11.9998C25.1586 11.824 24.9509 11.6845 24.722 11.5893C24.4932 11.4941 24.2478 11.4451 24 11.4451C23.7522 11.4451 23.5068 11.4941 23.278 11.5893C23.0491 11.6845 22.8414 11.824 22.6667 11.9998L21.3333 13.3331C21.1586 13.5089 20.9509 13.6483 20.722 13.7435C20.4932 13.8387 20.2478 13.8877 20 13.8877C19.7522 13.8877 19.5068 13.8387 19.278 13.7435C19.0491 13.6483 18.8414 13.5089 18.6667 13.3331L17.3333 11.9998C17.1586 11.824 16.9509 11.6845 16.722 11.5893C16.4932 11.4941 16.2478 11.4451 16 11.4451C15.7522 11.4451 15.5068 11.4941 15.278 11.5893C15.0491 11.6845 14.8414 11.824 14.6667 11.9998L12 14.6664Z" stroke="#FFC700" stroke-width="1.8" stroke-linecap="round" stroke-linejoin="round"/>
</svg>
